<?xml version="1.0" encoding="utf-8"?>
<!-- Generator: Adobe Illustrator 16.0.0, SVG Export Plug-In . SVG Version: 6.00 Build 0)  -->
<!DOCTYPE svg PUBLIC "-//W3C//DTD SVG 1.1//EN" "http://www.w3.org/Graphics/SVG/1.1/DTD/svg11.dtd">
<svg version="1.1" id="Layer_1" xmlns="http://www.w3.org/2000/svg" xmlns:xlink="http://www.w3.org/1999/xlink" x="0px" y="0px"
	 width="700px" height="700px" viewBox="0 0 700 700" enable-background="new 0 0 700 700" xml:space="preserve">
<g>
	<linearGradient id="SVGID_1_" gradientUnits="userSpaceOnUse" x1="100.2109" y1="350" x2="599.7891" y2="350">
		<stop  offset="0" style="stop-color:#8DC63F"/>
		<stop  offset="0.3051" style="stop-color:#69925D"/>
		<stop  offset="0.621" style="stop-color:#476279"/>
		<stop  offset="0.8629" style="stop-color:#33448A"/>
		<stop  offset="1" style="stop-color:#2B3990"/>
	</linearGradient>
	<path fill="url(#SVGID_1_)" d="M599.789,350c0,137.953-111.833,249.787-249.787,249.787
		c-137.958,0-249.791-111.834-249.791-249.787c0-137.954,111.833-249.787,249.791-249.787
		C487.956,100.213,599.789,212.046,599.789,350z"/>
	<g>
		<linearGradient id="SVGID_2_" gradientUnits="userSpaceOnUse" x1="349.9995" y1="199.4863" x2="349.9995" y2="330.7822">
			<stop  offset="0" style="stop-color:#8DC63F;stop-opacity:0"/>
			<stop  offset="0.0653" style="stop-color:#94C94D;stop-opacity:0.0653"/>
			<stop  offset="0.3943" style="stop-color:#B7D68F;stop-opacity:0.3943"/>
			<stop  offset="0.6708" style="stop-color:#D1DFBF;stop-opacity:0.6708"/>
			<stop  offset="0.8809" style="stop-color:#E0E5DD;stop-opacity:0.8809"/>
			<stop  offset="1" style="stop-color:#E6E7E8"/>
		</linearGradient>
		<rect x="240.318" y="199.486" fill="url(#SVGID_2_)" width="219.364" height="131.296"/>
		<rect x="240.318" y="292.355" fill="#FFFFFF" width="219.364" height="38.427"/>
		<path fill="#FFFFFF" d="M240.318,340.39v68.852h78.86v91.27h61.645v-91.27h78.859V340.39H240.318z M349.998,486.899
			c-5.748,0-10.404-4.661-10.404-10.408c0-5.748,4.656-10.407,10.404-10.407c5.752,0,10.408,4.659,10.408,10.407
			C360.406,482.238,355.75,486.899,349.998,486.899z"/>
	</g>
</g>
</svg>
