<?xml version="1.0" encoding="utf-8"?>
<!-- Generator: Adobe Illustrator 16.0.0, SVG Export Plug-In . SVG Version: 6.00 Build 0)  -->
<!DOCTYPE svg PUBLIC "-//W3C//DTD SVG 1.1//EN" "http://www.w3.org/Graphics/SVG/1.1/DTD/svg11.dtd">
<svg version="1.1" id="Layer_1" xmlns="http://www.w3.org/2000/svg" xmlns:xlink="http://www.w3.org/1999/xlink" x="0px" y="0px"
	 width="700px" height="700px" viewBox="0 0 700 700" enable-background="new 0 0 700 700" xml:space="preserve">
<g>
	<path fill="#231F20" d="M596.419,350c0,136.093-110.324,246.416-246.417,246.416c-136.097,0-246.42-110.323-246.42-246.416
		c0-136.09,110.324-246.417,246.42-246.417C486.095,103.583,596.419,213.91,596.419,350z"/>
	<g>
		<circle fill="#231F20" stroke="#D1D3D4" stroke-miterlimit="10" cx="350" cy="350" r="219.343"/>
		<path fill="#FFFFFF" stroke="#D1D3D4" stroke-miterlimit="10" d="M350.002,571.535c-122.157,0-221.539-99.38-221.539-221.535
			c0-122.154,99.382-221.535,221.539-221.535c122.155,0,221.535,99.38,221.535,221.535
			C571.537,472.155,472.157,571.535,350.002,571.535z M350.002,132.853c-119.739,0-217.151,97.412-217.151,217.147
			c0,119.734,97.413,217.147,217.151,217.147c119.734,0,217.147-97.413,217.147-217.147
			C567.149,230.264,469.736,132.853,350.002,132.853z"/>
	</g>
	<g>
		<path fill="#FFFFFF" d="M332.494,241.746h35.01l94.59,216.509h-39.925l-21.804-51.899H298.713l-22.112,51.899h-38.695
			L332.494,241.746z M386.546,372.879l-37.161-85.988l-36.853,85.988H386.546z"/>
	</g>
	<g>
		<path fill="#FFFFFF" d="M430.577,250.15h-19.06v-14.533h19.06v-18.954h14.952v18.954h19.06v14.533h-19.06v18.953h-14.952V250.15z"
			/>
	</g>
</g>
</svg>
