<?xml version="1.0" encoding="utf-8"?>
<!-- Generator: Adobe Illustrator 16.0.0, SVG Export Plug-In . SVG Version: 6.00 Build 0)  -->
<!DOCTYPE svg PUBLIC "-//W3C//DTD SVG 1.1//EN" "http://www.w3.org/Graphics/SVG/1.1/DTD/svg11.dtd">
<svg version="1.1" id="Layer_1" xmlns="http://www.w3.org/2000/svg" xmlns:xlink="http://www.w3.org/1999/xlink" x="0px" y="0px"
	 width="700px" height="700px" viewBox="0 0 700 700" enable-background="new 0 0 700 700" xml:space="preserve">
<g>
	<linearGradient id="SVGID_1_" gradientUnits="userSpaceOnUse" x1="99.666" y1="350" x2="600.334" y2="350">
		<stop  offset="0" style="stop-color:#F1F2F2"/>
		<stop  offset="0.5636" style="stop-color:#DCDEDE"/>
		<stop  offset="1" style="stop-color:#D1D3D4"/>
	</linearGradient>
	<path fill="url(#SVGID_1_)" d="M600.334,350c0,138.255-112.077,250.332-250.332,250.332C211.743,600.332,99.666,488.255,99.666,350
		c0-138.253,112.077-250.332,250.336-250.332C488.257,99.668,600.334,211.747,600.334,350z"/>
	<g>
		<path fill="#006838" d="M275.563,130.103c-10.925,3.702-21.484,8.196-31.608,13.417l0,0c-0.309,0.159-0.618,0.318-0.922,0.479
			l-0.009,0.004c-0.113,0.056-0.222,0.115-0.335,0.174c-0.004,0.002-0.004,0.002-0.013,0.007c-0.035,0.02-0.069,0.037-0.108,0.056
			l-0.004,0.002c-0.113,0.059-0.227,0.12-0.339,0.178c-0.004,0.002,0,0-0.004,0.004c-0.152,0.079-0.3,0.157-0.449,0.235
			c-0.008,0.004-0.013,0.006-0.017,0.011c-0.035,0.018-0.074,0.037-0.109,0.054c-0.004,0.004-0.004,0.002-0.009,0.007
			c-0.109,0.056-0.218,0.113-0.322,0.172c-0.008,0.002-0.021,0.008-0.026,0.013c-0.035,0.017-0.065,0.035-0.1,0.052
			c-0.009,0.004-0.013,0.007-0.018,0.011c-0.065,0.035-0.13,0.067-0.191,0.102c-0.009,0.002-0.021,0.011-0.03,0.015
			c-0.031,0.016-0.061,0.031-0.092,0.048c-0.013,0.006-0.021,0.013-0.035,0.02c-0.03,0.017-0.065,0.035-0.096,0.052l-0.009,0.002
			c-0.069,0.037-0.139,0.076-0.209,0.113c-0.004,0.004-0.013,0.006-0.017,0.011c-0.035,0.015-0.065,0.033-0.096,0.05
			c-0.013,0.006-0.022,0.011-0.035,0.017c-0.03,0.018-0.065,0.035-0.096,0.052v0.002c-0.069,0.037-0.139,0.072-0.205,0.111
			c-0.008,0.002-0.026,0.011-0.03,0.015c-0.031,0.015-0.061,0.033-0.091,0.048c-0.013,0.009-0.026,0.015-0.039,0.022
			c-0.031,0.017-0.061,0.033-0.092,0.05l-0.004,0.002c-0.069,0.037-0.135,0.074-0.205,0.111c-0.013,0.006-0.017,0.009-0.03,0.015
			c-0.03,0.018-0.061,0.035-0.091,0.052c-0.009,0.002-0.026,0.013-0.035,0.018c-0.031,0.015-0.061,0.035-0.096,0.05v0.002
			c-0.065,0.035-0.13,0.07-0.191,0.104c-0.021,0.011-0.03,0.017-0.052,0.026c-0.026,0.015-0.052,0.031-0.078,0.046
			c-0.022,0.011-0.031,0.015-0.048,0.026c-0.096,0.05-0.188,0.1-0.279,0.15c-0.017,0.011-0.035,0.02-0.052,0.03
			c-0.026,0.013-0.057,0.031-0.083,0.043c-0.018,0.011-0.031,0.018-0.048,0.028c-0.091,0.05-0.179,0.098-0.27,0.148
			c-0.021,0.011-0.043,0.024-0.061,0.035c-0.026,0.013-0.048,0.026-0.074,0.039c-0.018,0.011-0.043,0.024-0.061,0.035
			c-0.03,0.018-0.061,0.035-0.096,0.052c-0.031,0.018-0.061,0.035-0.096,0.052c-0.022,0.013-0.043,0.024-0.065,0.037
			c-0.022,0.011-0.048,0.026-0.065,0.037c-0.026,0.013-0.052,0.028-0.074,0.041c-0.022,0.011-0.043,0.024-0.065,0.035
			c-0.03,0.017-0.061,0.035-0.096,0.054c-0.03,0.018-0.057,0.033-0.091,0.05c-0.022,0.011-0.039,0.021-0.061,0.035
			c-0.026,0.013-0.052,0.028-0.078,0.042c-0.022,0.013-0.04,0.024-0.061,0.037c-0.026,0.013-0.048,0.026-0.074,0.04
			c-0.035,0.02-0.065,0.037-0.1,0.057c-0.03,0.017-0.048,0.028-0.083,0.045c-0.022,0.013-0.043,0.024-0.065,0.037
			c-0.026,0.013-0.043,0.024-0.069,0.039c-0.022,0.013-0.043,0.026-0.07,0.039c-0.022,0.013-0.048,0.026-0.074,0.042
			c-0.03,0.018-0.061,0.035-0.096,0.054c-0.03,0.018-0.048,0.026-0.078,0.044c-0.022,0.013-0.043,0.026-0.07,0.039
			c-0.021,0.013-0.048,0.026-0.069,0.042c-0.022,0.011-0.043,0.023-0.065,0.035c-0.031,0.017-0.052,0.03-0.087,0.048
			c-0.026,0.017-0.052,0.033-0.083,0.048c-0.03,0.02-0.052,0.03-0.087,0.048c-0.018,0.013-0.039,0.024-0.061,0.035
			c-0.026,0.016-0.048,0.028-0.074,0.043c-0.022,0.011-0.043,0.024-0.065,0.035c-0.035,0.021-0.07,0.041-0.104,0.063
			c-0.022,0.009-0.039,0.021-0.057,0.03c-0.035,0.018-0.061,0.035-0.096,0.052c-0.018,0.011-0.035,0.022-0.052,0.033
			c-0.026,0.015-0.061,0.035-0.087,0.048c-0.018,0.011-0.035,0.022-0.052,0.031c-0.039,0.021-0.079,0.045-0.118,0.067
			c-0.021,0.011-0.039,0.021-0.061,0.035c-0.03,0.018-0.048,0.028-0.083,0.046c-0.018,0.011-0.039,0.024-0.057,0.032
			c-0.026,0.016-0.057,0.035-0.083,0.048c-0.018,0.011-0.04,0.021-0.057,0.033c-0.035,0.021-0.087,0.05-0.122,0.071
			c-0.017,0.009-0.035,0.018-0.052,0.028c-0.026,0.013-0.057,0.033-0.083,0.046c-0.022,0.013-0.039,0.024-0.061,0.037
			c-0.026,0.013-0.057,0.033-0.083,0.046c-0.018,0.011-0.035,0.021-0.052,0.03c-0.035,0.021-0.087,0.05-0.126,0.072
			c-0.013,0.009-0.03,0.02-0.048,0.028c-0.03,0.02-0.057,0.033-0.087,0.052c-0.018,0.009-0.035,0.02-0.052,0.03
			c-0.03,0.018-0.057,0.033-0.091,0.05c-0.013,0.009-0.031,0.02-0.048,0.028c-0.035,0.021-0.087,0.052-0.126,0.074
			c-0.013,0.009-0.026,0.018-0.039,0.024c-0.035,0.02-0.065,0.037-0.096,0.057c-0.018,0.009-0.035,0.018-0.048,0.026
			c-0.039,0.021-0.065,0.039-0.104,0.061c-0.013,0.007-0.022,0.013-0.035,0.02c-0.043,0.026-0.087,0.05-0.131,0.076
			c-0.013,0.008-0.03,0.017-0.043,0.026c-0.03,0.02-0.061,0.035-0.091,0.054c-0.018,0.009-0.031,0.018-0.048,0.028
			c-0.039,0.022-0.07,0.037-0.104,0.061c-0.013,0.004-0.022,0.011-0.035,0.018c-0.044,0.026-0.087,0.052-0.131,0.076
			c-0.013,0.011-0.03,0.02-0.043,0.028c-0.026,0.013-0.065,0.037-0.091,0.052c-0.018,0.009-0.031,0.02-0.048,0.028
			c-0.039,0.021-0.079,0.045-0.113,0.067c-0.009,0.004-0.018,0.009-0.021,0.011c-0.044,0.026-0.087,0.055-0.131,0.078
			c-0.018,0.009-0.03,0.018-0.043,0.026c-0.039,0.022-0.061,0.035-0.096,0.057c-0.018,0.009-0.031,0.018-0.043,0.026
			c-0.04,0.022-0.079,0.043-0.113,0.065c-0.013,0.006-0.022,0.013-0.035,0.02c-0.035,0.022-0.083,0.052-0.122,0.074
			c-0.013,0.009-0.026,0.015-0.039,0.024c-0.04,0.021-0.065,0.039-0.104,0.061c-0.013,0.006-0.022,0.013-0.035,0.02
			c-0.087,0.052-0.183,0.111-0.274,0.163c-0.013,0.006-0.026,0.015-0.035,0.022c-0.04,0.023-0.07,0.041-0.109,0.063
			c-0.009,0.006-0.018,0.013-0.031,0.02c-0.043,0.026-0.096,0.057-0.139,0.083c-0.004,0.002-0.004,0.002-0.009,0.004
			c-0.043,0.026-0.083,0.05-0.126,0.076c-0.013,0.009-0.026,0.015-0.035,0.022c-0.039,0.024-0.069,0.041-0.108,0.063
			c-0.009,0.009-0.022,0.013-0.031,0.02c-0.043,0.028-0.096,0.057-0.139,0.083c-0.004,0.002-0.009,0.007-0.013,0.009
			c-0.039,0.022-0.087,0.052-0.122,0.074c-0.013,0.006-0.026,0.013-0.035,0.021c-0.039,0.022-0.078,0.046-0.117,0.068
			c-0.004,0.006-0.013,0.008-0.022,0.013c-0.048,0.031-0.087,0.055-0.139,0.085c-0.004,0.004-0.013,0.009-0.018,0.011
			c-0.039,0.024-0.083,0.05-0.122,0.074c-0.009,0.004-0.018,0.011-0.031,0.018c-0.035,0.024-0.083,0.05-0.117,0.074
			c-0.009,0.002-0.013,0.007-0.018,0.011c-0.052,0.028-0.091,0.055-0.144,0.085c-0.004,0.002-0.009,0.007-0.018,0.009
			c-0.035,0.024-0.078,0.05-0.113,0.072c-0.017,0.009-0.026,0.015-0.043,0.024c-0.035,0.024-0.078,0.05-0.118,0.072
			c-0.004,0.002-0.008,0.007-0.013,0.009c-0.048,0.031-0.092,0.057-0.14,0.085c-0.008,0.004-0.013,0.009-0.021,0.013
			c-0.039,0.024-0.083,0.05-0.118,0.074c-0.013,0.004-0.021,0.011-0.03,0.018c-0.043,0.026-0.087,0.052-0.13,0.078
			c0,0.002-0.005,0.002-0.005,0.004c-0.052,0.031-0.096,0.057-0.144,0.087c-0.009,0.004-0.013,0.009-0.017,0.011
			c-0.04,0.024-0.083,0.052-0.122,0.074c-0.009,0.007-0.017,0.013-0.03,0.018c-0.091,0.059-0.179,0.113-0.274,0.17
			c-0.009,0.004-0.017,0.013-0.026,0.017c-0.039,0.022-0.083,0.05-0.118,0.072c-0.009,0.004-0.018,0.009-0.022,0.013
			c-0.1,0.061-0.183,0.113-0.283,0.174c-0.004,0.004-0.013,0.009-0.018,0.013c-0.039,0.022-0.083,0.05-0.122,0.074
			c-0.009,0.006-0.018,0.011-0.026,0.018c-0.087,0.052-0.187,0.115-0.274,0.169c-0.009,0.007-0.018,0.011-0.031,0.018
			c-0.035,0.024-0.078,0.05-0.113,0.072c-0.008,0.004-0.017,0.011-0.026,0.015c-0.091,0.059-0.183,0.115-0.278,0.174
			c-0.004,0.004-0.013,0.009-0.022,0.015c-0.035,0.022-0.083,0.05-0.118,0.074c-0.008,0.004-0.017,0.009-0.026,0.013
			c-0.091,0.059-0.183,0.118-0.274,0.176c-0.009,0.004-0.017,0.009-0.026,0.013c-0.043,0.028-0.083,0.054-0.126,0.081
			c-0.004,0.002-0.009,0.004-0.009,0.006c-0.1,0.063-0.187,0.118-0.287,0.181c-0.004,0.002-0.009,0.006-0.013,0.009
			c-0.043,0.028-0.087,0.054-0.13,0.083c-0.004,0.002-0.009,0.007-0.018,0.009c-0.091,0.059-0.187,0.12-0.278,0.179
			c-0.009,0.004-0.013,0.006-0.022,0.011c-0.039,0.028-0.091,0.059-0.135,0.087c0,0,0,0,0,0.002c-0.052,0.03-0.1,0.061-0.148,0.093
			l0,0c-0.043,0.026-0.091,0.059-0.135,0.085c-0.009,0.004-0.018,0.011-0.022,0.015c-0.043,0.028-0.087,0.055-0.13,0.081
			c0,0.002-0.004,0.007-0.009,0.009c-0.048,0.03-0.092,0.059-0.144,0.089c-0.004,0.002-0.004,0.004-0.009,0.006
			c-0.043,0.028-0.083,0.052-0.122,0.081c-0.013,0.004-0.021,0.013-0.03,0.018c-0.043,0.028-0.092,0.059-0.135,0.087l0,0
			c-0.048,0.03-0.096,0.061-0.144,0.091c-0.004,0.002-0.004,0.004-0.009,0.007c-0.043,0.026-0.087,0.054-0.13,0.083
			c-0.004,0.004-0.013,0.009-0.018,0.013c-0.1,0.063-0.187,0.117-0.283,0.181c-0.004,0.002-0.009,0.004-0.009,0.006
			c-0.043,0.028-0.087,0.057-0.13,0.085c-0.004,0.004-0.013,0.006-0.018,0.011c-0.1,0.063-0.183,0.118-0.278,0.181
			c-0.009,0.004-0.013,0.009-0.018,0.013c-0.039,0.021-0.087,0.057-0.126,0.081c-0.004,0.004-0.008,0.006-0.017,0.011
			c-0.096,0.063-0.183,0.12-0.279,0.183c-0.004,0.002-0.009,0.007-0.013,0.009c-0.043,0.028-0.083,0.055-0.126,0.081
			c-0.009,0.004-0.013,0.011-0.022,0.015c-0.096,0.063-0.183,0.118-0.278,0.183c-0.004,0.002-0.009,0.004-0.013,0.006
			c-0.043,0.028-0.083,0.057-0.126,0.085c-0.004,0.002-0.013,0.009-0.018,0.011c-0.096,0.063-0.183,0.12-0.278,0.183
			c-0.004,0.004-0.013,0.008-0.018,0.011c-0.035,0.024-0.087,0.059-0.122,0.083c-0.009,0.004-0.013,0.006-0.017,0.011
			c-0.096,0.063-0.179,0.12-0.279,0.183c-0.004,0.004-0.013,0.009-0.018,0.013c-0.043,0.028-0.087,0.059-0.13,0.084
			c-0.004,0.004-0.004,0.004-0.009,0.007c-0.048,0.033-0.091,0.063-0.144,0.093v0.002c-0.048,0.03-0.087,0.059-0.135,0.089
			c-0.004,0.004-0.013,0.008-0.018,0.013c-0.043,0.028-0.087,0.057-0.13,0.085c0,0.002-0.004,0.004-0.009,0.006
			c-0.048,0.033-0.091,0.063-0.139,0.096c-0.004,0-0.004,0-0.004,0c-0.043,0.028-0.092,0.061-0.135,0.089
			c-0.004,0.004-0.013,0.011-0.017,0.016c-0.092,0.061-0.188,0.122-0.274,0.183c-0.009,0.004-0.013,0.009-0.018,0.011
			c-0.039,0.024-0.087,0.057-0.122,0.081c-0.009,0.007-0.013,0.011-0.022,0.018c-0.043,0.028-0.091,0.059-0.13,0.087
			c-0.004,0.002-0.004,0.002-0.004,0.002c-0.048,0.033-0.091,0.061-0.139,0.094c-0.004,0.004-0.013,0.009-0.018,0.013
			c-0.035,0.024-0.078,0.052-0.113,0.076c-0.013,0.009-0.021,0.015-0.035,0.022c-0.043,0.028-0.087,0.059-0.126,0.087l-0.004,0.002
			c-0.048,0.033-0.087,0.059-0.135,0.091c-0.009,0.004-0.013,0.009-0.021,0.013c-0.035,0.026-0.083,0.057-0.118,0.083
			c-0.009,0.004-0.018,0.008-0.022,0.013c-0.091,0.061-0.183,0.126-0.274,0.188c-0.004,0.002-0.009,0.006-0.013,0.008
			c-0.039,0.026-0.087,0.061-0.126,0.085c-0.004,0.004-0.013,0.009-0.018,0.013c-0.091,0.061-0.183,0.124-0.27,0.185
			c-0.008,0.006-0.017,0.011-0.026,0.017c-0.035,0.024-0.079,0.055-0.118,0.079c-0.004,0.006-0.013,0.009-0.017,0.015
			c-0.096,0.065-0.179,0.12-0.274,0.185c-0.004,0.004-0.013,0.011-0.018,0.015c-0.039,0.024-0.083,0.057-0.122,0.081
			c-0.004,0.006-0.013,0.009-0.018,0.015c-0.091,0.061-0.178,0.122-0.27,0.185c-0.009,0.004-0.017,0.013-0.026,0.018
			c-0.035,0.024-0.074,0.052-0.113,0.078c-0.004,0.004-0.013,0.011-0.022,0.015c-0.048,0.035-0.087,0.061-0.135,0.094
			c-0.004,0.002-0.004,0.004-0.009,0.006c-0.043,0.028-0.083,0.057-0.126,0.087c-0.009,0.004-0.013,0.009-0.022,0.015
			c-0.035,0.024-0.083,0.059-0.122,0.083c-0.004,0.004-0.009,0.009-0.013,0.011c-0.048,0.035-0.091,0.063-0.139,0.096
			c0,0.002-0.004,0.004-0.004,0.006c-0.043,0.028-0.083,0.055-0.122,0.085c-0.013,0.006-0.021,0.013-0.03,0.02
			c-0.043,0.03-0.079,0.054-0.122,0.085c-0.004,0.002-0.009,0.004-0.009,0.006c-0.048,0.033-0.091,0.063-0.139,0.096
			c-0.004,0.004-0.004,0.004-0.009,0.009c-0.043,0.028-0.083,0.057-0.122,0.085c-0.009,0.006-0.018,0.011-0.026,0.018
			c-0.043,0.028-0.083,0.056-0.122,0.084c-0.004,0.002-0.009,0.007-0.013,0.009c-0.048,0.033-0.087,0.063-0.135,0.096
			c-0.004,0.004-0.009,0.004-0.013,0.009c-0.039,0.028-0.079,0.057-0.122,0.085c-0.009,0.006-0.013,0.011-0.021,0.018
			c-0.043,0.028-0.092,0.063-0.131,0.091l0,0c-0.048,0.035-0.091,0.065-0.139,0.098c-0.004,0.004-0.009,0.007-0.013,0.011
			c-0.035,0.024-0.087,0.061-0.122,0.087c-0.009,0.004-0.013,0.006-0.018,0.011c-0.018,0.013-0.022,0.015-0.039,0.026l28.331,40.012
			c14.398-10.193,30.128-18.219,46.75-23.856L275.563,130.103L275.563,130.103z"/>
		<path fill="#39B54A" d="M209.044,165.667c-8.448,6.48-16.435,13.527-23.904,21.087c0,0.002,0,0.002,0,0.002
			c-0.249,0.248-0.488,0.494-0.731,0.742l-0.004,0.002c-0.039,0.042-0.079,0.081-0.118,0.122c0,0,0,0,0,0.002
			c-0.205,0.207-0.405,0.412-0.605,0.618c0,0.002-0.004,0.004-0.004,0.006c-0.043,0.042-0.078,0.079-0.117,0.12v0.002
			c-0.083,0.083-0.161,0.166-0.244,0.248c0,0.002,0,0,0,0.002c-0.039,0.041-0.074,0.074-0.113,0.115
			c-0.004,0.006-0.009,0.009-0.013,0.013c-0.078,0.083-0.152,0.159-0.23,0.241c-0.004,0.004-0.004,0.007-0.009,0.009
			c-0.039,0.043-0.07,0.074-0.113,0.115c0,0.004-0.004,0.004-0.004,0.009c-0.083,0.083-0.157,0.161-0.235,0.244
			c-0.004,0.004-0.004,0.007-0.009,0.009c-0.035,0.037-0.07,0.072-0.104,0.109c-0.004,0.006-0.013,0.013-0.018,0.02
			c-0.074,0.079-0.148,0.157-0.226,0.235c-0.009,0.008-0.013,0.015-0.022,0.023c-0.03,0.033-0.061,0.065-0.091,0.096
			c-0.009,0.008-0.013,0.015-0.022,0.024c-0.074,0.078-0.152,0.159-0.226,0.237c-0.004,0.007-0.009,0.009-0.013,0.013
			c-0.03,0.033-0.069,0.074-0.1,0.107c-0.004,0.006-0.013,0.013-0.017,0.02c-0.079,0.078-0.152,0.161-0.227,0.239
			c-0.004,0.004-0.013,0.011-0.018,0.015c-0.03,0.03-0.069,0.074-0.096,0.104c-0.009,0.007-0.013,0.013-0.021,0.02
			c-0.079,0.085-0.144,0.157-0.227,0.239c-0.004,0.007-0.009,0.011-0.013,0.016c-0.03,0.032-0.065,0.072-0.096,0.104
			c-0.008,0.006-0.017,0.015-0.021,0.021c-0.07,0.074-0.152,0.163-0.222,0.237c-0.009,0.006-0.018,0.015-0.021,0.024
			c-0.031,0.033-0.061,0.061-0.087,0.094c-0.013,0.011-0.017,0.017-0.026,0.028c-0.035,0.037-0.074,0.078-0.109,0.115l0,0
			c-0.039,0.043-0.074,0.078-0.113,0.12c-0.009,0.009-0.013,0.015-0.021,0.024c-0.031,0.03-0.057,0.059-0.083,0.091
			c-0.013,0.011-0.021,0.022-0.035,0.033c-0.035,0.037-0.065,0.072-0.1,0.109c0,0.002,0,0.002-0.004,0.006
			c-0.035,0.037-0.074,0.081-0.109,0.118c-0.009,0.009-0.017,0.018-0.026,0.026c-0.031,0.033-0.057,0.061-0.087,0.094
			c-0.008,0.009-0.017,0.018-0.026,0.028c-0.035,0.037-0.065,0.072-0.1,0.109c-0.004,0.004-0.004,0.004-0.009,0.009
			c-0.039,0.041-0.07,0.076-0.109,0.117c-0.004,0.009-0.013,0.016-0.021,0.022c-0.026,0.033-0.057,0.065-0.087,0.096
			c-0.008,0.011-0.017,0.02-0.026,0.03c-0.035,0.037-0.065,0.072-0.1,0.109c-0.004,0.002-0.004,0.004-0.009,0.009
			c-0.035,0.037-0.074,0.078-0.104,0.115c-0.013,0.011-0.022,0.022-0.03,0.033c-0.031,0.033-0.052,0.052-0.079,0.085
			c-0.013,0.013-0.021,0.024-0.035,0.035c-0.026,0.033-0.061,0.067-0.091,0.1c-0.004,0.007-0.009,0.011-0.013,0.018
			c-0.035,0.037-0.074,0.078-0.109,0.115c-0.009,0.009-0.018,0.022-0.026,0.031c-0.031,0.03-0.048,0.052-0.079,0.084
			c-0.013,0.013-0.021,0.026-0.035,0.04c-0.031,0.032-0.057,0.063-0.087,0.093c-0.004,0.009-0.013,0.015-0.018,0.022
			c-0.035,0.037-0.07,0.074-0.104,0.113c-0.013,0.013-0.022,0.026-0.035,0.039c-0.022,0.02-0.052,0.054-0.07,0.076
			c-0.013,0.015-0.026,0.028-0.039,0.041c-0.026,0.028-0.052,0.059-0.079,0.085c-0.008,0.011-0.017,0.022-0.026,0.033
			c-0.035,0.037-0.07,0.076-0.104,0.113c-0.009,0.011-0.022,0.022-0.03,0.033c-0.022,0.026-0.048,0.054-0.074,0.081
			c-0.013,0.015-0.026,0.03-0.039,0.043c-0.026,0.033-0.052,0.057-0.079,0.089c-0.009,0.008-0.017,0.017-0.026,0.026
			c-0.031,0.037-0.065,0.076-0.1,0.113c-0.013,0.011-0.022,0.024-0.035,0.037c-0.022,0.026-0.048,0.054-0.074,0.08
			c-0.009,0.013-0.022,0.026-0.035,0.04c-0.026,0.033-0.052,0.061-0.083,0.093c-0.009,0.009-0.013,0.016-0.021,0.024
			c-0.035,0.037-0.07,0.076-0.104,0.116c-0.009,0.009-0.018,0.021-0.026,0.03c-0.03,0.033-0.048,0.052-0.074,0.083
			c-0.013,0.016-0.026,0.028-0.039,0.043c-0.031,0.033-0.048,0.055-0.079,0.087c-0.009,0.011-0.018,0.02-0.026,0.028
			c-0.035,0.039-0.07,0.076-0.104,0.113c-0.009,0.013-0.018,0.024-0.031,0.037c-0.021,0.026-0.048,0.055-0.074,0.083
			c-0.009,0.013-0.022,0.026-0.035,0.039c-0.022,0.026-0.053,0.059-0.074,0.085c-0.013,0.011-0.022,0.024-0.03,0.035
			c-0.035,0.037-0.07,0.074-0.104,0.113c-0.009,0.011-0.018,0.021-0.026,0.033c-0.03,0.032-0.048,0.05-0.074,0.083
			c-0.013,0.015-0.026,0.028-0.04,0.043c-0.026,0.026-0.052,0.057-0.074,0.085c-0.013,0.009-0.022,0.021-0.031,0.03
			c-0.035,0.039-0.061,0.072-0.096,0.111c-0.017,0.015-0.03,0.032-0.048,0.05c-0.017,0.022-0.035,0.042-0.057,0.063
			c-0.013,0.018-0.03,0.037-0.043,0.052c-0.026,0.028-0.043,0.048-0.065,0.076c-0.013,0.013-0.026,0.026-0.04,0.04
			c-0.026,0.032-0.069,0.078-0.096,0.111c-0.013,0.015-0.026,0.028-0.039,0.043c-0.018,0.022-0.043,0.048-0.061,0.07
			c-0.018,0.017-0.03,0.035-0.048,0.052c-0.021,0.026-0.039,0.048-0.065,0.076c-0.013,0.013-0.021,0.026-0.035,0.039
			c-0.03,0.033-0.065,0.076-0.096,0.109c-0.013,0.015-0.03,0.032-0.043,0.05c-0.018,0.022-0.039,0.043-0.057,0.065
			c-0.018,0.018-0.03,0.035-0.048,0.054c-0.018,0.022-0.039,0.043-0.057,0.065c-0.018,0.018-0.03,0.035-0.048,0.052
			c-0.03,0.033-0.065,0.074-0.091,0.106c-0.013,0.013-0.026,0.028-0.039,0.044c-0.018,0.021-0.043,0.05-0.065,0.072
			c-0.013,0.015-0.031,0.035-0.043,0.05c-0.022,0.028-0.039,0.048-0.065,0.074c-0.009,0.015-0.021,0.028-0.035,0.043
			c-0.031,0.033-0.065,0.074-0.096,0.106c-0.013,0.018-0.031,0.035-0.043,0.052c-0.018,0.022-0.04,0.043-0.057,0.065
			c-0.018,0.017-0.031,0.035-0.048,0.054c-0.018,0.022-0.04,0.043-0.057,0.065c-0.013,0.018-0.031,0.035-0.044,0.052
			c-0.03,0.033-0.065,0.072-0.091,0.104c-0.017,0.02-0.035,0.037-0.052,0.057c-0.013,0.015-0.03,0.039-0.048,0.054
			c-0.017,0.022-0.035,0.043-0.052,0.065c-0.017,0.015-0.035,0.037-0.048,0.054c-0.021,0.024-0.043,0.048-0.065,0.074
			c-0.022,0.026-0.052,0.063-0.079,0.089c-0.013,0.02-0.03,0.037-0.048,0.057c-0.017,0.021-0.03,0.037-0.052,0.059
			c-0.018,0.02-0.03,0.039-0.048,0.059c-0.013,0.015-0.039,0.046-0.052,0.061c-0.017,0.02-0.035,0.037-0.048,0.057
			c-0.03,0.033-0.065,0.072-0.091,0.104c-0.018,0.017-0.03,0.035-0.043,0.052c-0.022,0.021-0.035,0.041-0.057,0.063
			c-0.018,0.02-0.035,0.042-0.052,0.061c-0.013,0.015-0.03,0.039-0.048,0.054c-0.022,0.026-0.039,0.048-0.061,0.074
			c-0.022,0.026-0.052,0.061-0.078,0.089c-0.018,0.02-0.035,0.041-0.052,0.063c-0.013,0.015-0.031,0.035-0.044,0.052
			c-0.017,0.02-0.039,0.041-0.056,0.063c-0.013,0.015-0.035,0.039-0.048,0.057c-0.017,0.02-0.035,0.039-0.052,0.059
			c-0.026,0.035-0.057,0.072-0.087,0.104c-0.017,0.02-0.035,0.039-0.052,0.061c-0.013,0.015-0.03,0.035-0.043,0.052
			c-0.017,0.022-0.039,0.043-0.057,0.065c-0.013,0.017-0.03,0.037-0.043,0.052c-0.026,0.028-0.048,0.056-0.069,0.084
			c-0.026,0.026-0.048,0.052-0.07,0.081c-0.018,0.02-0.039,0.043-0.057,0.065c-0.013,0.015-0.026,0.033-0.043,0.05
			c-0.018,0.022-0.035,0.044-0.052,0.065c-0.018,0.018-0.031,0.035-0.043,0.05c-0.022,0.024-0.043,0.048-0.061,0.072
			c-0.03,0.033-0.052,0.063-0.083,0.096c-0.018,0.021-0.035,0.042-0.048,0.061c-0.018,0.017-0.035,0.039-0.048,0.054
			c-0.018,0.022-0.04,0.043-0.057,0.065c-0.013,0.018-0.031,0.035-0.044,0.052c-0.035,0.042-0.069,0.081-0.104,0.122
			c-0.013,0.018-0.022,0.026-0.035,0.044c-0.017,0.021-0.035,0.043-0.057,0.065c-0.013,0.018-0.026,0.035-0.039,0.052
			c-0.017,0.02-0.039,0.043-0.057,0.065c-0.013,0.015-0.03,0.033-0.043,0.05c-0.021,0.028-0.043,0.055-0.069,0.083
			c-0.022,0.028-0.048,0.059-0.07,0.085c-0.018,0.021-0.039,0.045-0.057,0.065c-0.013,0.018-0.026,0.033-0.039,0.05
			c-0.018,0.021-0.04,0.045-0.057,0.069c-0.018,0.016-0.026,0.028-0.039,0.046c-0.07,0.081-0.135,0.159-0.2,0.239
			c-0.013,0.018-0.022,0.028-0.04,0.046c-0.017,0.021-0.039,0.046-0.057,0.069c-0.013,0.018-0.021,0.026-0.035,0.044
			c-0.069,0.081-0.135,0.161-0.2,0.241c-0.017,0.016-0.026,0.031-0.039,0.046c-0.022,0.024-0.043,0.05-0.061,0.072
			c-0.013,0.018-0.021,0.024-0.035,0.042c-0.07,0.085-0.135,0.167-0.205,0.25c-0.009,0.013-0.022,0.026-0.03,0.037
			c-0.022,0.024-0.044,0.05-0.061,0.074c-0.018,0.017-0.022,0.024-0.035,0.041c-0.069,0.083-0.135,0.166-0.205,0.248
			c-0.013,0.018-0.017,0.024-0.035,0.042c-0.017,0.024-0.039,0.048-0.061,0.074c-0.013,0.017-0.017,0.024-0.03,0.041
			c-0.07,0.081-0.135,0.164-0.2,0.244c-0.018,0.018-0.026,0.031-0.039,0.046c-0.018,0.024-0.039,0.048-0.057,0.07
			c-0.013,0.017-0.026,0.03-0.039,0.048c-0.018,0.024-0.04,0.045-0.057,0.072c-0.026,0.033-0.057,0.067-0.083,0.1
			c-0.017,0.021-0.035,0.043-0.052,0.063c-0.013,0.018-0.03,0.037-0.043,0.055c-0.018,0.021-0.039,0.045-0.057,0.067
			c-0.013,0.017-0.026,0.032-0.039,0.048c-0.018,0.024-0.035,0.048-0.057,0.072c-0.009,0.011-0.013,0.017-0.021,0.028
			c-0.04,0.048-0.079,0.093-0.118,0.141c-0.013,0.018-0.022,0.031-0.035,0.048c-0.022,0.022-0.039,0.048-0.057,0.07
			c-0.013,0.015-0.026,0.031-0.039,0.048c-0.022,0.024-0.04,0.046-0.057,0.07c-0.013,0.018-0.026,0.03-0.039,0.048
			c-0.035,0.041-0.065,0.083-0.101,0.124c-0.013,0.018-0.021,0.028-0.035,0.046c-0.022,0.023-0.043,0.05-0.061,0.074
			c-0.013,0.018-0.021,0.024-0.035,0.042c-0.022,0.024-0.039,0.05-0.061,0.074c-0.004,0.007-0.004,0.009-0.009,0.015
			c-0.043,0.052-0.083,0.103-0.126,0.155c-0.013,0.017-0.026,0.033-0.039,0.05c-0.018,0.024-0.035,0.046-0.057,0.07
			c-0.013,0.015-0.022,0.028-0.035,0.046c-0.021,0.024-0.039,0.048-0.061,0.074c-0.013,0.018-0.018,0.024-0.035,0.042
			c-0.03,0.041-0.065,0.083-0.096,0.124c-0.017,0.018-0.03,0.035-0.043,0.052c-0.017,0.024-0.035,0.045-0.057,0.07
			c-0.013,0.017-0.021,0.03-0.039,0.048c-0.018,0.023-0.035,0.048-0.057,0.072c-0.004,0.006-0.009,0.015-0.013,0.02
			c-0.043,0.052-0.083,0.102-0.122,0.152c-0.013,0.017-0.026,0.03-0.039,0.048c-0.018,0.024-0.035,0.043-0.052,0.067
			c-0.013,0.018-0.031,0.037-0.044,0.052c-0.017,0.024-0.035,0.046-0.052,0.067c-0.018,0.022-0.035,0.043-0.053,0.067
			c-0.026,0.033-0.056,0.067-0.083,0.103c-0.013,0.017-0.026,0.035-0.039,0.052c-0.022,0.024-0.035,0.045-0.057,0.067
			c-0.013,0.017-0.026,0.037-0.039,0.052c-0.018,0.024-0.035,0.045-0.052,0.067c-0.022,0.024-0.03,0.037-0.048,0.059
			c-0.031,0.037-0.061,0.076-0.087,0.113c-0.013,0.018-0.031,0.033-0.044,0.05c-0.017,0.024-0.035,0.048-0.052,0.069
			c-0.013,0.018-0.026,0.033-0.039,0.048c-0.017,0.024-0.039,0.05-0.057,0.074c-0.021,0.028-0.039,0.048-0.061,0.076
			c-0.021,0.03-0.043,0.057-0.065,0.085c-0.013,0.017-0.035,0.043-0.048,0.061c-0.018,0.022-0.035,0.043-0.052,0.065
			c-0.013,0.018-0.031,0.039-0.043,0.057c-0.018,0.022-0.035,0.043-0.048,0.063c-0.026,0.028-0.04,0.048-0.061,0.076
			c-0.026,0.031-0.048,0.063-0.074,0.094c-0.013,0.018-0.03,0.039-0.043,0.057c-0.017,0.021-0.035,0.043-0.052,0.065
			c-0.013,0.015-0.03,0.039-0.043,0.056c-0.018,0.022-0.035,0.043-0.048,0.065c-0.022,0.028-0.043,0.054-0.065,0.083
			c-0.021,0.028-0.043,0.057-0.065,0.083c-0.013,0.018-0.035,0.041-0.048,0.059c-0.018,0.024-0.035,0.046-0.053,0.067
			c-0.013,0.018-0.026,0.037-0.039,0.055c-0.017,0.021-0.035,0.043-0.052,0.065c-0.021,0.031-0.035,0.048-0.056,0.076
			c-0.026,0.028-0.048,0.059-0.07,0.087c-0.013,0.017-0.039,0.048-0.052,0.065c-0.013,0.022-0.03,0.04-0.043,0.061
			c-0.018,0.022-0.031,0.039-0.048,0.061c-0.018,0.022-0.035,0.043-0.048,0.063c-0.031,0.035-0.048,0.059-0.074,0.094
			c-0.017,0.024-0.035,0.046-0.052,0.069c-0.013,0.018-0.039,0.046-0.052,0.063c-0.017,0.024-0.03,0.043-0.048,0.065
			c-0.013,0.017-0.03,0.039-0.043,0.056c-0.018,0.022-0.035,0.046-0.052,0.068c-0.013,0.017-0.03,0.037-0.043,0.054
			c-0.026,0.039-0.057,0.078-0.087,0.115c-0.013,0.018-0.031,0.039-0.044,0.057c-0.013,0.022-0.03,0.042-0.048,0.063
			c-0.017,0.024-0.026,0.037-0.043,0.061c-0.017,0.022-0.035,0.042-0.052,0.063c-0.021,0.028-0.043,0.057-0.065,0.085
			c-0.018,0.026-0.04,0.055-0.061,0.081c-0.013,0.018-0.031,0.043-0.043,0.061c-0.018,0.021-0.035,0.046-0.052,0.067
			c-0.018,0.022-0.026,0.035-0.044,0.059c-0.017,0.022-0.03,0.042-0.048,0.063c-0.021,0.028-0.035,0.045-0.056,0.074
			c-0.026,0.031-0.048,0.061-0.07,0.091c-0.013,0.018-0.035,0.046-0.048,0.063c-0.018,0.021-0.03,0.041-0.048,0.063
			c-0.018,0.021-0.03,0.039-0.048,0.061c-0.013,0.02-0.031,0.041-0.048,0.061c-0.031,0.042-0.052,0.072-0.083,0.113
			c-0.008,0.013-0.021,0.028-0.03,0.042c-0.021,0.028-0.039,0.05-0.061,0.081c-0.017,0.02-0.03,0.037-0.043,0.057
			c-0.018,0.024-0.035,0.045-0.052,0.069c-0.013,0.02-0.03,0.037-0.043,0.055c-0.022,0.028-0.043,0.063-0.065,0.091
			c-0.021,0.024-0.039,0.05-0.057,0.074c-0.017,0.022-0.035,0.046-0.052,0.07c-0.017,0.02-0.03,0.042-0.048,0.061
			c-0.017,0.021-0.03,0.039-0.048,0.063c-0.013,0.02-0.03,0.042-0.043,0.061c-0.021,0.03-0.043,0.057-0.065,0.087
			c-0.017,0.024-0.039,0.052-0.056,0.076c-0.013,0.018-0.04,0.05-0.052,0.067c-0.018,0.022-0.031,0.044-0.048,0.065
			c-0.018,0.024-0.031,0.037-0.048,0.061c-0.013,0.021-0.031,0.042-0.044,0.061c-0.021,0.03-0.043,0.059-0.065,0.087
			c-0.018,0.024-0.035,0.048-0.052,0.069c-0.022,0.028-0.039,0.05-0.061,0.081c-0.013,0.017-0.026,0.035-0.039,0.052
			c-0.018,0.024-0.035,0.052-0.052,0.074c-0.013,0.018-0.026,0.037-0.039,0.054c-0.031,0.04-0.061,0.076-0.092,0.118
			c-0.004,0.007-0.009,0.013-0.013,0.022c-0.026,0.035-0.052,0.065-0.079,0.102c-0.009,0.015-0.022,0.03-0.035,0.048
			c-0.018,0.024-0.043,0.057-0.061,0.081c-0.009,0.018-0.022,0.031-0.035,0.048c-0.026,0.035-0.052,0.072-0.079,0.107
			c-0.009,0.015-0.021,0.03-0.03,0.043c-0.022,0.028-0.048,0.063-0.07,0.093c-0.013,0.016-0.021,0.033-0.035,0.048
			c-0.018,0.022-0.043,0.057-0.061,0.081c-0.009,0.015-0.021,0.033-0.035,0.048c-0.031,0.04-0.061,0.081-0.091,0.122
			c0,0.002,0,0.006-0.004,0.009c-0.031,0.039-0.052,0.074-0.083,0.115c-0.013,0.015-0.021,0.028-0.035,0.043
			c-0.022,0.03-0.043,0.059-0.065,0.087c-0.009,0.016-0.017,0.028-0.03,0.042c-0.026,0.042-0.061,0.085-0.087,0.124
			c-0.004,0.004-0.009,0.009-0.009,0.011c-0.031,0.042-0.057,0.076-0.087,0.116c-0.009,0.015-0.018,0.026-0.026,0.041
			c-0.026,0.035-0.043,0.057-0.07,0.092c-0.008,0.013-0.017,0.026-0.026,0.039c-0.03,0.041-0.061,0.083-0.091,0.124l39.629,28.861
			c10.381-14.254,22.737-26.925,36.735-37.662L209.044,165.667L209.044,165.667z"/>
		<path fill="#8DC63F" d="M157.415,220.67c-0.022,0.035-0.048,0.072-0.07,0.106c-0.017,0.024-0.03,0.046-0.048,0.07
			c-0.013,0.017-0.026,0.039-0.039,0.057c-0.013,0.024-0.031,0.048-0.048,0.072c-0.009,0.017-0.026,0.039-0.035,0.057
			c-0.031,0.045-0.061,0.091-0.096,0.137c-0.004,0.013-0.017,0.028-0.021,0.04c-0.018,0.026-0.035,0.05-0.052,0.076
			c-0.013,0.017-0.022,0.033-0.035,0.05c-0.018,0.026-0.031,0.05-0.048,0.076c-0.013,0.018-0.026,0.035-0.035,0.052
			c-0.026,0.039-0.052,0.078-0.078,0.118c-0.018,0.024-0.026,0.039-0.043,0.063c-0.018,0.024-0.031,0.048-0.048,0.072
			c-0.013,0.018-0.022,0.035-0.035,0.054c-0.017,0.024-0.035,0.05-0.052,0.074c-0.008,0.02-0.017,0.03-0.03,0.05
			c-0.031,0.045-0.057,0.087-0.087,0.132c-0.013,0.018-0.022,0.031-0.035,0.05c-0.017,0.024-0.03,0.048-0.048,0.074
			c-0.013,0.018-0.026,0.037-0.035,0.055c-0.018,0.024-0.035,0.048-0.048,0.072c-0.013,0.018-0.026,0.037-0.035,0.054
			c-0.031,0.044-0.061,0.087-0.087,0.131c-0.009,0.011-0.026,0.037-0.035,0.05c-0.013,0.024-0.03,0.048-0.048,0.074
			c-0.009,0.011-0.026,0.042-0.035,0.052c-0.018,0.026-0.031,0.05-0.048,0.074c-0.018,0.024-0.022,0.033-0.04,0.057
			c-0.026,0.042-0.056,0.087-0.083,0.128c-0.009,0.013-0.022,0.037-0.03,0.048c-0.018,0.026-0.035,0.052-0.052,0.079
			c-0.009,0.017-0.022,0.033-0.031,0.05c-0.018,0.024-0.035,0.05-0.048,0.074c-0.018,0.024-0.03,0.041-0.043,0.065
			c-0.026,0.039-0.052,0.076-0.074,0.115c-0.013,0.017-0.026,0.037-0.04,0.054c-0.013,0.026-0.03,0.05-0.048,0.076
			c-0.013,0.018-0.017,0.031-0.03,0.048c-0.018,0.028-0.035,0.052-0.052,0.081c-0.009,0.013-0.009,0.011-0.018,0.024
			c-0.03,0.05-0.065,0.103-0.1,0.155c-0.013,0.02-0.021,0.037-0.035,0.054c-0.018,0.024-0.03,0.048-0.048,0.074
			c-0.009,0.018-0.026,0.04-0.035,0.057c-0.017,0.024-0.03,0.048-0.048,0.07c-0.021,0.037-0.048,0.076-0.069,0.111
			c-0.018,0.024-0.031,0.048-0.048,0.072c-0.009,0.018-0.022,0.037-0.035,0.055c-0.017,0.026-0.03,0.05-0.048,0.074
			c-0.013,0.02-0.021,0.033-0.03,0.052c-0.039,0.055-0.074,0.111-0.109,0.166c-0.004,0.007-0.009,0.013-0.013,0.02
			c-0.017,0.026-0.035,0.055-0.052,0.081c-0.009,0.02-0.013,0.022-0.026,0.042c-0.018,0.028-0.035,0.057-0.052,0.085
			c-0.009,0.011-0.018,0.026-0.026,0.039c-0.031,0.048-0.065,0.1-0.096,0.15c-0.013,0.018-0.017,0.024-0.026,0.042
			c-0.018,0.026-0.035,0.052-0.052,0.078c-0.009,0.018-0.018,0.028-0.031,0.048c-0.013,0.026-0.03,0.053-0.048,0.079
			c-0.008,0.013-0.021,0.03-0.026,0.043c-0.035,0.05-0.065,0.1-0.096,0.15c-0.013,0.017-0.018,0.024-0.031,0.041
			c-0.013,0.024-0.03,0.055-0.048,0.079c-0.008,0.013-0.021,0.033-0.03,0.045c-0.018,0.028-0.03,0.055-0.048,0.081
			c-0.009,0.013-0.021,0.033-0.03,0.046c-0.031,0.045-0.061,0.093-0.092,0.142c-0.004,0.013-0.021,0.035-0.03,0.048
			c-0.013,0.026-0.03,0.052-0.048,0.078c-0.009,0.013-0.022,0.035-0.03,0.046c-0.018,0.028-0.035,0.054-0.048,0.081
			c-0.009,0.013-0.022,0.03-0.026,0.041c-0.035,0.05-0.065,0.1-0.096,0.15c-0.009,0.011-0.022,0.03-0.026,0.043
			c-0.017,0.026-0.035,0.054-0.052,0.081c-0.009,0.013-0.018,0.03-0.026,0.041c-0.018,0.031-0.035,0.059-0.057,0.087
			c0,0.006-0.009,0.015-0.013,0.021c-0.035,0.055-0.069,0.111-0.104,0.168c-0.009,0.011-0.018,0.03-0.026,0.041
			c-0.018,0.028-0.035,0.057-0.052,0.083c-0.009,0.013-0.018,0.028-0.026,0.041c-0.018,0.028-0.035,0.057-0.053,0.087
			c-0.004,0.004,0-0.002-0.004,0.004c-0.04,0.061-0.079,0.126-0.118,0.189c-0.009,0.011-0.013,0.024-0.022,0.037
			c-0.017,0.028-0.035,0.057-0.052,0.085c-0.008,0.011-0.017,0.024-0.026,0.037c-0.057,0.091-0.113,0.183-0.17,0.276
			c-0.013,0.017-0.017,0.026-0.03,0.045c-0.018,0.028-0.03,0.052-0.048,0.081c-0.013,0.02-0.018,0.024-0.026,0.043
			c-0.057,0.091-0.113,0.183-0.174,0.276c-0.009,0.018-0.013,0.022-0.022,0.042c-0.017,0.028-0.035,0.057-0.057,0.085
			c-0.004,0.013-0.008,0.018-0.017,0.03c-0.057,0.096-0.118,0.189-0.174,0.285c-0.013,0.02-0.013,0.024-0.026,0.042
			c-0.018,0.03-0.035,0.059-0.052,0.087c-0.009,0.013-0.013,0.015-0.018,0.028c-0.061,0.098-0.122,0.194-0.178,0.292
			c-0.009,0.013-0.013,0.022-0.022,0.035c-0.018,0.03-0.039,0.061-0.057,0.091c-0.004,0.006-0.004,0.008-0.009,0.015
			c-0.065,0.102-0.126,0.202-0.187,0.307c-0.009,0.011-0.009,0.016-0.018,0.026c-0.083,0.139-0.169,0.281-0.252,0.42
			c-0.008,0.011-0.008,0.013-0.017,0.026c-0.061,0.102-0.126,0.207-0.188,0.309c-0.004,0.007-0.004,0.007-0.004,0.011
			c-0.022,0.033-0.04,0.065-0.061,0.096c-0.004,0.013-0.009,0.02-0.018,0.03c-0.061,0.104-0.126,0.209-0.187,0.311
			c-0.004,0.007,0,0.002-0.004,0.007c-0.018,0.033-0.04,0.067-0.061,0.1c0,0.006-0.009,0.02-0.013,0.026
			c-0.061,0.1-0.122,0.203-0.183,0.303c-0.004,0.013-0.004,0.011-0.013,0.021c-0.018,0.033-0.035,0.063-0.052,0.094
			c-0.004,0.007-0.017,0.026-0.021,0.03c-0.061,0.103-0.118,0.205-0.179,0.305c-0.004,0.007-0.009,0.011-0.009,0.018
			c-0.021,0.033-0.043,0.067-0.061,0.1l-0.008,0.015c-0.065,0.107-0.126,0.213-0.192,0.32c-0.004,0.006,0,0.002-0.004,0.008
			c-0.022,0.035-0.04,0.07-0.061,0.104c-0.004,0.007-0.004,0.004-0.009,0.011c-0.061,0.108-0.126,0.217-0.191,0.326
			c0,0.004,0.004-0.002,0,0.004c-0.087,0.146-0.174,0.296-0.261,0.442l-0.004,0.006c-8.753,14.977-15.878,31.027-21.123,47.899
			l46.815,14.557c5.21-16.764,12.835-32.686,22.659-47.327L157.415,220.67L157.415,220.67z"/>
		<path fill="#BE1E2D" d="M126.168,289.322c-0.457,1.689-0.893,3.386-1.306,5.092c-0.004,0.009,0-0.004-0.004,0.002
			c-0.026,0.111-0.052,0.222-0.079,0.333c-0.004,0.006-0.004,0.015-0.004,0.021c-0.017,0.07-0.035,0.137-0.052,0.207
			c0,0.006,0,0,0,0.008c-0.008,0.037-0.017,0.07-0.026,0.107l-0.004,0.017c-0.018,0.065-0.035,0.133-0.048,0.198
			c-0.004,0.015-0.004,0.009-0.009,0.024c-0.004,0.035-0.013,0.067-0.022,0.103c-0.004,0.006-0.004,0.017-0.008,0.024
			c-0.013,0.061-0.026,0.122-0.04,0.181c-0.004,0.015-0.008,0.028-0.013,0.043c-0.009,0.033-0.013,0.063-0.022,0.096
			c0,0.006-0.004,0.02-0.004,0.026c-0.017,0.061-0.03,0.12-0.043,0.181c-0.004,0.013-0.009,0.028-0.013,0.042
			c-0.004,0.033-0.013,0.063-0.021,0.093c0,0.013-0.009,0.048-0.013,0.063c-0.013,0.043-0.022,0.091-0.03,0.135
			c-0.009,0.022-0.013,0.042-0.018,0.063c-0.004,0.026-0.013,0.057-0.018,0.083c-0.013,0.043-0.017,0.074-0.03,0.12
			c-0.004,0.026-0.013,0.052-0.018,0.078c-0.008,0.031-0.008,0.042-0.017,0.07c-0.004,0.026-0.009,0.05-0.018,0.076
			c-0.009,0.043-0.018,0.078-0.026,0.122c-0.008,0.026-0.013,0.053-0.017,0.079c-0.009,0.022-0.013,0.05-0.018,0.072
			c-0.009,0.039-0.017,0.074-0.026,0.113c-0.009,0.021-0.018,0.061-0.022,0.083c-0.004,0.026-0.013,0.055-0.017,0.081
			c-0.005,0.022-0.013,0.052-0.018,0.074c-0.009,0.035-0.018,0.067-0.022,0.102c-0.009,0.028-0.017,0.063-0.021,0.094
			c-0.009,0.024-0.013,0.048-0.018,0.072c-0.009,0.028-0.013,0.063-0.022,0.091c-0.008,0.033-0.013,0.061-0.021,0.094
			c-0.004,0.028-0.013,0.063-0.022,0.093c-0.004,0.024-0.008,0.046-0.013,0.07c-0.008,0.03-0.017,0.078-0.026,0.106
			c-0.004,0.024-0.009,0.05-0.018,0.074c-0.004,0.028-0.017,0.074-0.021,0.102c-0.004,0.02-0.009,0.04-0.013,0.059
			c-0.009,0.043-0.021,0.093-0.03,0.137c-0.004,0.017-0.009,0.035-0.013,0.05c-0.004,0.028-0.018,0.074-0.022,0.103
			c-0.004,0.021-0.008,0.039-0.013,0.061c-0.009,0.043-0.022,0.094-0.031,0.137c-0.004,0.018-0.009,0.031-0.013,0.048
			c-0.008,0.043-0.013,0.065-0.021,0.111c-0.004,0.016-0.009,0.031-0.013,0.048c-0.009,0.044-0.021,0.098-0.03,0.142
			c-0.004,0.015-0.009,0.033-0.013,0.048c-0.009,0.043-0.013,0.07-0.021,0.115c-0.004,0.013-0.009,0.028-0.013,0.044
			c-0.009,0.043-0.022,0.1-0.031,0.146c-0.004,0.013-0.004,0.028-0.009,0.043c-0.008,0.043-0.017,0.079-0.026,0.124
			c-0.004,0.011-0.009,0.024-0.009,0.035c-0.013,0.05-0.021,0.096-0.035,0.146c0,0.015-0.004,0.031-0.009,0.046
			c-0.009,0.043-0.018,0.083-0.026,0.126c-0.004,0.011-0.004,0.02-0.009,0.031c-0.009,0.052-0.022,0.1-0.031,0.15
			c-0.004,0.013-0.009,0.028-0.009,0.042c-0.013,0.052-0.021,0.098-0.035,0.148c0,0.004,0,0.006,0,0.011
			c-0.013,0.052-0.021,0.1-0.035,0.15c0,0.013-0.004,0.026-0.009,0.039c-0.009,0.052-0.021,0.103-0.03,0.155
			c0,0.006-0.004,0.013-0.004,0.017c-0.009,0.046-0.022,0.1-0.031,0.144c-0.004,0.011-0.004,0.024-0.009,0.035
			c-0.008,0.05-0.021,0.104-0.03,0.157c-0.004,0.004-0.004,0.011-0.004,0.015c-0.009,0.043-0.021,0.102-0.03,0.146
			c-0.004,0.011-0.004,0.022-0.009,0.031c-0.009,0.052-0.022,0.104-0.03,0.157c-0.004,0.008-0.004,0.02-0.009,0.028
			c-0.009,0.043-0.018,0.096-0.031,0.139c0,0.009,0,0.018-0.004,0.026c-0.013,0.059-0.022,0.1-0.031,0.159
			c-0.004,0.009-0.004,0.017-0.009,0.026c-0.009,0.052-0.017,0.098-0.03,0.15c0,0.004,0,0.009-0.004,0.013
			c-0.009,0.05-0.022,0.111-0.03,0.161c-0.004,0.009-0.004,0.02-0.009,0.028c-0.009,0.052-0.018,0.1-0.031,0.152
			c0,0.002,0,0.007,0,0.011c-0.013,0.059-0.021,0.104-0.035,0.164c-0.004,0.009-0.004,0.015-0.004,0.024
			c-0.022,0.102-0.048,0.222-0.07,0.326c0,0.009-0.004,0.018-0.004,0.026c-0.022,0.104-0.048,0.226-0.065,0.329
			c-0.004,0.006-0.004,0.015-0.004,0.024c-0.026,0.111-0.048,0.222-0.07,0.333c0,0.004,0,0.011-0.004,0.018
			c-0.021,0.117-0.043,0.224-0.069,0.344c0,0,0,0.002,0,0.004c-1.671,8.383-2.895,16.924-3.639,25.608l0,0
			c-0.009,0.124-0.022,0.244-0.031,0.365v0.002c-0.009,0.122-0.021,0.244-0.03,0.366v0.002c-0.009,0.122-0.022,0.242-0.03,0.366
			v0.002c-0.009,0.122-0.018,0.242-0.031,0.364c0,0.002,0,0.002,0,0.004c-0.021,0.305-0.048,0.609-0.07,0.917c0,0.002,0,0,0,0.002
			c-0.008,0.122-0.017,0.242-0.026,0.366v0.002c-0.009,0.124-0.018,0.241-0.026,0.363c-0.004,0.002-0.004,0.004-0.004,0.006
			c-0.009,0.124-0.018,0.242-0.026,0.366l0,0c-0.009,0.124-0.013,0.239-0.021,0.363c0,0.002,0,0.007-0.004,0.009
			c-0.004,0.124-0.013,0.242-0.022,0.364v0.002c-0.022,0.307-0.043,0.607-0.061,0.914c0,0.006,0,0.011,0,0.018
			c-0.009,0.124-0.017,0.23-0.021,0.353c0,0.006,0,0.011-0.004,0.015c-0.004,0.122-0.013,0.229-0.018,0.35
			c-0.004,0.009-0.004,0.013-0.004,0.022c-0.004,0.122-0.013,0.226-0.017,0.348c-0.004,0.004-0.004,0.013-0.004,0.02
			c-0.004,0.115-0.013,0.233-0.018,0.348c0,0.007-0.004,0.013-0.004,0.022c-0.004,0.115-0.013,0.23-0.017,0.346
			c0,0.009,0,0.016,0,0.022c-0.005,0.063-0.009,0.113-0.013,0.176c0,0,0,0.002,0,0.004c0,0.061-0.004,0.111-0.009,0.172
			c0,0.006,0,0.009,0,0.013c-0.004,0.063-0.004,0.115-0.009,0.176c0,0.006,0,0.009,0,0.013c-0.004,0.061-0.009,0.106-0.009,0.167
			c0,0.006,0,0.008-0.004,0.013c0,0.061-0.004,0.111-0.009,0.172c0,0.008,0,0.015,0,0.024c0,0.054-0.004,0.106-0.008,0.161
			c0,0.007,0,0.009,0,0.013c-0.004,0.061-0.004,0.111-0.009,0.172c0,0.009,0,0.013,0,0.022c-0.009,0.124-0.013,0.224-0.018,0.348
			c0,0.006,0,0.015,0,0.024c-0.009,0.106-0.013,0.235-0.017,0.344c0,0.009,0,0.018,0,0.026c-0.009,0.106-0.013,0.237-0.018,0.344
			c0,0.009,0,0.018,0,0.024c-0.004,0.063-0.004,0.111-0.009,0.172c0,0.006,0,0.009,0,0.013c-0.004,0.054-0.004,0.106-0.009,0.161
			c0,0.008,0,0.015,0,0.023c-0.004,0.061-0.004,0.109-0.009,0.172c0,0.006,0,0.011,0,0.017c0,0.046-0.004,0.113-0.004,0.159
			c0,0.006-0.004,0.015-0.004,0.021c0,0.061-0.004,0.109-0.004,0.172c0,0.004,0,0.013,0,0.02c-0.004,0.048-0.009,0.113-0.009,0.159
			c0,0.006,0,0.013,0,0.02c-0.004,0.052-0.004,0.111-0.009,0.166c0,0.013,0,0.021,0,0.033c0,0.048-0.004,0.108-0.004,0.154
			c0,0.006,0,0.011,0,0.018c-0.004,0.054-0.004,0.113-0.009,0.165c0,0.013,0,0.022,0,0.035c-0.004,0.106-0.009,0.229-0.013,0.337
			c0,0.011,0,0.022,0,0.031c-0.004,0.109-0.008,0.233-0.013,0.339c0,0.011,0,0.022,0,0.033c-0.004,0.106-0.009,0.233-0.013,0.342
			c0,0.009,0,0.017,0,0.024c-0.004,0.063-0.004,0.111-0.009,0.174c0,0.002,0,0.007,0,0.009c0,0.055,0,0.104-0.004,0.159
			c0,0.011,0,0.023,0,0.035c0,0.054-0.004,0.113-0.004,0.167c0,0.006,0,0.011,0,0.018c-0.004,0.045-0.004,0.106-0.004,0.152
			c-0.004,0.011-0.004,0.021-0.004,0.03c0,0.063,0,0.104-0.004,0.167c0,0.009,0,0.018,0,0.026c0,0.048-0.004,0.104-0.004,0.15
			c0,0.009,0,0.02,0,0.028c-0.004,0.055-0.004,0.109-0.004,0.163c0,0.011,0,0.024,0,0.035c-0.004,0.045-0.004,0.102-0.004,0.148
			c0,0.006,0,0.015-0.004,0.021c0,0.055,0,0.109-0.004,0.164c0,0.015,0,0.028,0,0.041c0,0.048,0,0.098-0.004,0.144
			c0,0.009,0,0.018,0,0.026c0,0.055,0,0.106-0.004,0.161c0,0.013,0,0.026,0,0.041c0,0.055-0.004,0.104-0.004,0.159
			c0,0.002,0,0.009,0,0.011c0,0.055,0,0.104-0.004,0.159c0,0.013,0,0.026,0,0.041c0,0.055-0.004,0.107-0.004,0.161
			c0,0.009,0,0.018,0,0.024c0,0.048,0,0.098-0.004,0.146c0,0.013,0,0.026,0,0.041c0,0.055,0,0.109-0.004,0.164
			c0,0.006,0,0.013,0,0.017c0,0.048,0,0.104,0,0.152c0,0.011-0.004,0.024-0.004,0.035c0,0.048,0,0.115,0,0.161
			c0,0.013,0,0.026,0,0.037c-0.004,0.048-0.004,0.089-0.004,0.137c0,0.013,0,0.026,0,0.039c0,0.043-0.004,0.113-0.004,0.161
			c0,0.009,0,0.021,0,0.035c0,0.043,0,0.096-0.004,0.144c0,0.008,0,0.017,0,0.026c0,0.057,0,0.109,0,0.161c0,0.017,0,0.03,0,0.043
			c-0.004,0.048-0.004,0.091-0.004,0.139c0,0.009,0,0.022,0,0.031c0,0.052,0,0.108-0.004,0.161c0,0.013,0,0.026,0,0.04
			c0,0.048,0,0.104,0,0.148c0,0.008,0,0.013,0,0.021c0,0.052-0.004,0.109-0.004,0.161c0,0.018,0,0.026,0,0.043
			c0,0.052,0,0.104,0,0.157c0,0.009,0,0.009,0,0.013c0,0.057-0.004,0.109-0.004,0.161c0,0.013,0,0.026,0,0.039
			c0,0.057,0,0.113,0,0.17l0,0c0,0.056-0.004,0.108-0.004,0.165c0,0.013,0,0.026,0,0.035c0,0.056,0,0.113,0,0.165
			c0,0.009,0,0.018,0,0.022c0,0.048,0,0.104,0,0.152c0,0.009,0,0.021,0,0.035c-0.005,0.057-0.005,0.109-0.005,0.161
			c0,0.013,0,0.026,0,0.035c0,0.048,0,0.091,0,0.139c0,0.013,0,0.026,0,0.04c0,0.048,0,0.113,0,0.161c0,0.013,0,0.022,0,0.035
			c0,0.043,0,0.1,0,0.144c-0.004,0.013-0.004,0.022-0.004,0.03c0,0.052,0,0.109,0,0.166c0,0.009,0,0.022,0,0.035
			c0,0.048,0,0.101,0,0.144c0,0.008,0,0.021,0,0.026c0,0.057,0,0.113,0,0.166c0,0.013,0,0.026,0,0.035c0,0.048,0,0.109,0,0.157
			c0,0.004,0,0.009,0,0.018c0,0.052,0,0.109,0,0.165c0,0.013,0,0.026,0,0.04c0,0.052,0,0.113,0,0.165l0,0c0,0.061,0,0.122,0,0.188
			c0,0.013,0,0.03,0,0.043c0,0.048,0,0.091,0,0.139c0,0.026,0,0.057,0,0.083c0,0.04,0,0.065,0,0.104c0,0.031,0,0.065,0,0.1
			c0,0.022,0,0.057,0,0.079c0,0.043,0,0.083,0,0.122c0,0.018,0,0.048,0,0.065c0,0.039,0,0.083,0,0.122c0,0.017,0,0.043,0,0.061
			c0.004,0.044,0.004,0.087,0.004,0.131c0,0.013,0,0.035,0,0.052c0,0.043,0,0.091,0,0.139c0,0.013,0,0.026,0,0.044
			c0,0.048,0,0.1,0,0.152c0,0.009,0,0.017,0,0.025c0,0.053,0,0.104,0,0.157c0,0.009,0,0.018,0,0.026
			c0.005,0.052,0.005,0.108,0.005,0.16c0,0.009,0,0.014,0,0.022c0,0.052,0,0.104,0,0.156c0,0.009,0,0.018,0,0.026
			c0,0.052,0,0.104,0.004,0.161c0,0.004,0,0.013,0,0.021c0,0.053,0,0.104,0,0.157c0,0.017,0,0.013,0,0.025c0,0.057,0,0.109,0,0.166
			l0.004,0.018c0,0.052,0,0.104,0,0.16c0,0.009,0,0.014,0,0.022c0,0.057,0,0.108,0.004,0.161c0,0.009,0,0.013,0,0.021
			c0,0.052,0,0.104,0,0.156c0,0.005,0,0.026,0,0.031c0,0.052,0,0.1,0.004,0.147c0,0.018,0,0.026,0,0.039c0,0.048,0,0.092,0,0.135
			c0,0.018,0,0.044,0,0.057c0.004,0.044,0.004,0.083,0.004,0.122c0,0.026,0,0.048,0,0.069c0,0.035,0,0.07,0.004,0.104
			c0,0.035,0,0.062,0,0.096c0,0.026,0,0.053,0,0.083c0,0.039,0.004,0.074,0.004,0.113c0,0.021,0,0.039,0,0.061
			c0,0.044,0,0.101,0.004,0.148c0,0.009,0,0.018,0,0.026c0.009,0.452,0.017,0.883,0.026,1.332l49.014-1.211
			c-0.039-1.536-0.057-3.077-0.057-4.622c0-16.163,2.102-32.178,6.25-47.599L126.168,289.322L126.168,289.322z"/>
		<path fill="#EF4136" d="M167.63,361.318l-48.931,3.073c1.428,22.781,6.15,44.67,13.693,65.196l46.019-16.91
			C172.361,396.217,168.736,378.938,167.63,361.318L167.63,361.318z"/>
		<path fill="#F7941E" d="M180.958,419.216l-45.331,18.677c3.86,9.366,8.313,18.415,13.314,27.115
			c0.004,0.005,0.004,0.005,0.004,0.005c0.087,0.152,0.174,0.3,0.261,0.452l0,0c0.057,0.104,0.118,0.2,0.174,0.305l0,0
			c0.03,0.048,0.057,0.096,0.087,0.145c0,0.004,0,0.008,0.004,0.008c0.057,0.104,0.113,0.196,0.17,0.297
			c0.004,0.004,0.004,0.008,0.008,0.013c0.026,0.043,0.052,0.087,0.079,0.131c0,0.004,0.004,0.013,0.009,0.017
			c0.057,0.101,0.108,0.191,0.169,0.292c0,0.004,0.004,0.009,0.009,0.013c0.026,0.044,0.052,0.088,0.074,0.131
			c0.004,0.004,0.008,0.013,0.013,0.018c0.057,0.1,0.109,0.188,0.17,0.287c0.004,0.009,0.004,0.013,0.009,0.018
			c0.021,0.039,0.057,0.096,0.078,0.131c0,0.008,0.004,0.013,0.009,0.017c0.057,0.101,0.109,0.188,0.17,0.288
			c0.004,0.004,0.009,0.013,0.009,0.017c0.03,0.048,0.048,0.083,0.078,0.131c0.004,0.005,0.004,0.009,0.009,0.013
			c0.061,0.101,0.113,0.188,0.169,0.288c0.005,0.009,0.009,0.017,0.013,0.021c0.026,0.044,0.052,0.087,0.079,0.131
			c0,0.004,0.004,0.009,0.009,0.013c0.052,0.092,0.113,0.188,0.169,0.283c0.004,0.009,0.009,0.018,0.013,0.03
			c0.026,0.035,0.048,0.074,0.069,0.113c0.009,0.009,0.013,0.018,0.018,0.026c0.057,0.096,0.109,0.183,0.166,0.278
			c0.009,0.009,0.013,0.021,0.022,0.03c0.021,0.039,0.043,0.078,0.065,0.113c0.009,0.009,0.013,0.018,0.018,0.026
			c0.03,0.052,0.052,0.091,0.083,0.139c0.004,0.005,0.004,0.009,0.009,0.014c0.022,0.039,0.052,0.087,0.074,0.126
			c0.008,0.009,0.013,0.021,0.021,0.035c0.022,0.034,0.043,0.069,0.065,0.104c0.004,0.014,0.013,0.022,0.021,0.035
			c0.026,0.044,0.057,0.092,0.083,0.135c0,0.005,0.004,0.009,0.009,0.014c0.021,0.039,0.048,0.082,0.069,0.117
			c0.009,0.018,0.018,0.03,0.026,0.048c0.021,0.035,0.039,0.061,0.061,0.101c0.009,0.008,0.013,0.021,0.022,0.034
			c0.026,0.044,0.057,0.087,0.083,0.131c0.004,0.009,0.009,0.021,0.018,0.03c0.022,0.035,0.039,0.069,0.065,0.109
			c0.004,0.008,0.018,0.025,0.021,0.039c0.026,0.034,0.04,0.061,0.065,0.1c0.004,0.014,0.013,0.026,0.022,0.039
			c0.026,0.044,0.052,0.087,0.078,0.131c0.009,0.009,0.013,0.018,0.018,0.026c0.021,0.039,0.043,0.069,0.065,0.104
			c0.009,0.018,0.018,0.03,0.031,0.048c0.022,0.039,0.035,0.061,0.061,0.1c0.004,0.009,0.013,0.022,0.021,0.035
			c0.026,0.043,0.052,0.087,0.079,0.131c0.008,0.013,0.017,0.025,0.026,0.039c0.018,0.03,0.039,0.065,0.057,0.096
			c0.009,0.013,0.018,0.03,0.03,0.043c0.018,0.03,0.04,0.07,0.057,0.101c0.009,0.013,0.018,0.026,0.026,0.035
			c0.03,0.052,0.048,0.082,0.078,0.135c0.009,0.009,0.018,0.021,0.022,0.03c0.021,0.039,0.039,0.061,0.061,0.1
			c0.009,0.014,0.021,0.031,0.03,0.048c0.022,0.039,0.039,0.062,0.061,0.101c0.009,0.009,0.013,0.021,0.021,0.03
			c0.026,0.044,0.052,0.087,0.079,0.131c0.013,0.018,0.021,0.03,0.03,0.048c0.018,0.021,0.035,0.057,0.052,0.083
			c0.013,0.017,0.022,0.034,0.035,0.056c0.018,0.031,0.035,0.053,0.053,0.083c0.008,0.018,0.021,0.035,0.03,0.048
			c0.021,0.039,0.052,0.087,0.078,0.126c0.009,0.018,0.018,0.031,0.031,0.048c0.013,0.026,0.035,0.057,0.052,0.083
			c0.009,0.018,0.021,0.035,0.035,0.057c0.018,0.03,0.035,0.053,0.052,0.083c0.009,0.018,0.018,0.03,0.03,0.048
			c0.026,0.043,0.048,0.078,0.074,0.122c0.013,0.017,0.021,0.034,0.035,0.052c0.018,0.026,0.035,0.057,0.052,0.083
			c0.009,0.018,0.022,0.034,0.031,0.052c0.021,0.03,0.039,0.062,0.056,0.092c0.013,0.013,0.022,0.03,0.031,0.043
			c0.022,0.039,0.052,0.088,0.078,0.122c0.009,0.018,0.022,0.035,0.031,0.053c0.017,0.025,0.03,0.052,0.048,0.073
			c0.013,0.022,0.026,0.044,0.039,0.065c0.022,0.03,0.03,0.048,0.052,0.079c0.013,0.021,0.026,0.043,0.043,0.069
			c0.022,0.034,0.039,0.061,0.061,0.1c0.013,0.018,0.026,0.039,0.039,0.057c0.013,0.026,0.031,0.048,0.048,0.074
			c0.009,0.021,0.022,0.039,0.035,0.061c0.022,0.031,0.035,0.048,0.053,0.079c0.017,0.025,0.035,0.052,0.052,0.078
			c0.018,0.03,0.04,0.061,0.057,0.096c0.013,0.018,0.022,0.035,0.035,0.052c0.017,0.026,0.03,0.053,0.048,0.074
			c0.013,0.022,0.026,0.044,0.039,0.062c0.018,0.03,0.03,0.048,0.048,0.078c0.021,0.03,0.039,0.061,0.061,0.091
			c0.013,0.026,0.03,0.053,0.048,0.079c0.013,0.021,0.026,0.043,0.043,0.064c0.013,0.022,0.026,0.044,0.043,0.065
			c0.013,0.022,0.022,0.039,0.035,0.062c0.022,0.03,0.044,0.061,0.061,0.091c0.013,0.022,0.031,0.044,0.043,0.065
			c0.018,0.03,0.04,0.065,0.061,0.096c0.009,0.018,0.022,0.035,0.035,0.053c0.013,0.025,0.031,0.052,0.048,0.078
			c0.013,0.018,0.026,0.039,0.04,0.057c0.017,0.03,0.039,0.065,0.061,0.096c0.013,0.021,0.026,0.043,0.043,0.065
			c0.017,0.03,0.035,0.057,0.052,0.087c0.013,0.021,0.026,0.039,0.039,0.061c0.018,0.026,0.03,0.044,0.048,0.07
			c0.013,0.021,0.026,0.039,0.039,0.061c0.018,0.026,0.035,0.053,0.052,0.078c0.018,0.03,0.039,0.065,0.061,0.096
			c0.013,0.022,0.03,0.048,0.048,0.074c0.013,0.018,0.026,0.039,0.039,0.061c0.018,0.026,0.026,0.04,0.043,0.065
			c0.013,0.022,0.026,0.044,0.04,0.065c0.021,0.03,0.035,0.053,0.056,0.083c0.022,0.03,0.04,0.061,0.061,0.091
			c0.009,0.018,0.031,0.049,0.043,0.07c0.013,0.021,0.031,0.043,0.043,0.065c0.013,0.021,0.026,0.039,0.04,0.061
			c0.017,0.021,0.03,0.044,0.043,0.065c0.021,0.03,0.035,0.052,0.052,0.083c0.021,0.03,0.043,0.061,0.061,0.091
			c0.013,0.018,0.035,0.053,0.048,0.07c0.013,0.021,0.026,0.043,0.043,0.064c0.009,0.018,0.026,0.044,0.039,0.062
			c0.013,0.021,0.03,0.048,0.043,0.069c0.018,0.026,0.035,0.048,0.048,0.074c0.026,0.035,0.043,0.065,0.07,0.1
			c0.009,0.018,0.03,0.048,0.043,0.065c0.013,0.021,0.026,0.044,0.043,0.065c0.009,0.018,0.031,0.048,0.039,0.065
			c0.018,0.021,0.031,0.043,0.043,0.065c0.022,0.03,0.04,0.057,0.061,0.087c0.018,0.03,0.035,0.057,0.057,0.087
			c0.013,0.018,0.031,0.048,0.043,0.065c0.013,0.021,0.031,0.048,0.044,0.065c0.013,0.021,0.026,0.043,0.039,0.061
			c0.017,0.021,0.03,0.048,0.048,0.069c0.021,0.035,0.048,0.074,0.069,0.109c0.018,0.026,0.031,0.048,0.048,0.069
			c0.013,0.018,0.026,0.039,0.04,0.062c0.017,0.021,0.03,0.043,0.048,0.069c0.013,0.018,0.026,0.039,0.035,0.057
			c0.018,0.021,0.03,0.043,0.048,0.069c0.026,0.035,0.052,0.074,0.074,0.109c0.013,0.021,0.03,0.043,0.043,0.064
			c0.013,0.022,0.026,0.044,0.043,0.065c0.013,0.022,0.03,0.044,0.043,0.065c0.013,0.018,0.03,0.044,0.039,0.062
			c0.022,0.03,0.043,0.061,0.061,0.087c0.022,0.03,0.039,0.061,0.061,0.091c0.013,0.022,0.03,0.044,0.043,0.065
			c0.013,0.018,0.03,0.044,0.039,0.062c0.018,0.021,0.035,0.048,0.052,0.069c0.009,0.021,0.022,0.034,0.031,0.052
			c0.039,0.057,0.078,0.113,0.117,0.17c0.004,0.005,0,0.005,0.004,0.009c0.018,0.026,0.035,0.052,0.052,0.078
			c0.013,0.018,0.026,0.035,0.035,0.053c0.018,0.021,0.035,0.048,0.048,0.069c0.013,0.018,0.026,0.039,0.039,0.057
			c0.035,0.053,0.069,0.1,0.104,0.152c0.009,0.013,0.009,0.013,0.017,0.026c0.018,0.026,0.031,0.048,0.048,0.073
			c0.013,0.018,0.026,0.035,0.035,0.053c0.017,0.026,0.035,0.048,0.052,0.074c0.013,0.018,0.021,0.034,0.035,0.052
			c0.03,0.044,0.057,0.083,0.087,0.126c0.013,0.022,0.022,0.035,0.035,0.053c0.018,0.026,0.031,0.048,0.048,0.069
			c0.013,0.018,0.03,0.044,0.043,0.062c0.013,0.021,0.03,0.043,0.043,0.065c0.013,0.021,0.026,0.039,0.039,0.056
			c0.026,0.044,0.057,0.083,0.083,0.127c0.013,0.018,0.026,0.034,0.04,0.052c0.017,0.026,0.03,0.048,0.048,0.069
			c0.017,0.026,0.021,0.035,0.039,0.062c0.018,0.021,0.035,0.044,0.048,0.069c0.013,0.018,0.026,0.039,0.039,0.057
			c0.026,0.035,0.048,0.07,0.07,0.104c0.018,0.021,0.035,0.048,0.052,0.074c0.013,0.018,0.03,0.039,0.043,0.061
			c0.018,0.022,0.03,0.044,0.048,0.065c0.013,0.021,0.026,0.044,0.039,0.062c0.018,0.025,0.035,0.052,0.052,0.073
			c0.018,0.031,0.039,0.057,0.061,0.087c0.018,0.031,0.035,0.053,0.057,0.083c0.013,0.018,0.026,0.039,0.039,0.062
			c0.018,0.021,0.03,0.039,0.048,0.064c0.013,0.018,0.03,0.044,0.043,0.062c0.022,0.03,0.031,0.043,0.052,0.074
			c0.018,0.025,0.035,0.052,0.052,0.078c0.022,0.03,0.04,0.061,0.061,0.091c0.013,0.018,0.026,0.035,0.039,0.053
			c0.018,0.021,0.035,0.052,0.052,0.074c0.013,0.021,0.026,0.039,0.039,0.057c0.018,0.03,0.035,0.056,0.057,0.082
			c0.018,0.026,0.035,0.053,0.052,0.079c0.022,0.03,0.039,0.052,0.061,0.082c0.013,0.018,0.022,0.035,0.035,0.053
			c0.018,0.025,0.04,0.057,0.057,0.078c0.013,0.018,0.022,0.035,0.035,0.052c0.021,0.031,0.048,0.065,0.065,0.096
			c0.018,0.022,0.035,0.044,0.052,0.07c0.018,0.03,0.031,0.048,0.052,0.073c0.013,0.022,0.031,0.044,0.043,0.062
			c0.018,0.026,0.031,0.048,0.048,0.074c0.013,0.017,0.026,0.034,0.04,0.057c0.021,0.025,0.048,0.061,0.065,0.091
			c0.018,0.021,0.035,0.048,0.052,0.07c0.022,0.03,0.031,0.047,0.052,0.078c0.013,0.018,0.031,0.039,0.043,0.057
			c0.018,0.025,0.031,0.048,0.048,0.069c0.013,0.021,0.026,0.039,0.043,0.061c0.017,0.031,0.043,0.065,0.065,0.096
			c0.018,0.022,0.031,0.044,0.048,0.065c0.022,0.031,0.035,0.048,0.052,0.078c0.018,0.018,0.026,0.035,0.043,0.057
			c0.013,0.022,0.035,0.053,0.053,0.074c0.013,0.018,0.026,0.035,0.039,0.053c0.017,0.03,0.043,0.065,0.065,0.096
			c0.018,0.025,0.035,0.052,0.052,0.074c0.018,0.025,0.035,0.048,0.052,0.069c0.013,0.021,0.026,0.039,0.04,0.057
			c0.017,0.026,0.035,0.052,0.052,0.074c0.013,0.021,0.026,0.039,0.04,0.056c0.026,0.035,0.057,0.079,0.083,0.113
			c0.013,0.018,0.022,0.035,0.035,0.053c0.022,0.026,0.035,0.043,0.057,0.074c0.013,0.017,0.022,0.034,0.04,0.057
			c0.013,0.021,0.039,0.057,0.056,0.078c0.009,0.018,0.022,0.03,0.031,0.048c0.03,0.039,0.057,0.078,0.087,0.117
			c0.009,0.013,0.018,0.026,0.03,0.044c0.022,0.025,0.04,0.052,0.061,0.082c0.013,0.018,0.022,0.035,0.035,0.053
			c0.021,0.026,0.039,0.048,0.061,0.078c0.009,0.018,0.022,0.035,0.035,0.048c0.026,0.044,0.052,0.078,0.083,0.122
			c0.009,0.009,0.018,0.021,0.026,0.035c0.021,0.03,0.048,0.061,0.065,0.091c0.013,0.014,0.022,0.03,0.035,0.044
			c0.026,0.034,0.044,0.061,0.07,0.096c0.004,0.013,0.013,0.021,0.022,0.03c0.035,0.048,0.057,0.078,0.091,0.126
			c0.004,0.014,0.018,0.022,0.022,0.035c0.021,0.03,0.048,0.065,0.069,0.092c0.009,0.017,0.018,0.03,0.03,0.043
			c0.022,0.03,0.044,0.061,0.065,0.092c0.009,0.013,0.022,0.025,0.031,0.039c0.026,0.034,0.061,0.087,0.087,0.122
			c0.009,0.013,0.017,0.025,0.026,0.034c0.022,0.03,0.044,0.062,0.065,0.092c0.013,0.013,0.022,0.03,0.035,0.043
			c0.026,0.039,0.04,0.062,0.065,0.096c0.009,0.009,0.018,0.022,0.026,0.035c0.03,0.039,0.061,0.078,0.091,0.122
			c0.009,0.009,0.018,0.021,0.026,0.035c0.026,0.034,0.04,0.056,0.065,0.091c0.013,0.014,0.022,0.026,0.03,0.039
			c0.026,0.035,0.048,0.07,0.074,0.104c0.009,0.009,0.013,0.018,0.022,0.026c0.035,0.048,0.056,0.078,0.091,0.126
			c0.004,0.009,0.013,0.018,0.021,0.026c0.026,0.039,0.048,0.065,0.074,0.1c0.009,0.014,0.017,0.026,0.026,0.04
			c0.026,0.034,0.052,0.073,0.079,0.108c0.004,0.004,0.008,0.013,0.013,0.018c0.03,0.043,0.065,0.082,0.096,0.126
			c0.008,0.013,0.017,0.021,0.026,0.035c0.026,0.034,0.043,0.061,0.07,0.096c0.009,0.013,0.017,0.021,0.026,0.034
			c0.026,0.035,0.057,0.079,0.083,0.113c0.005,0.005,0.009,0.009,0.013,0.018c0.031,0.039,0.061,0.083,0.091,0.126
			c0.009,0.009,0.018,0.018,0.026,0.031c0.021,0.034,0.043,0.061,0.07,0.096c0.008,0.013,0.017,0.025,0.026,0.034
			c0.03,0.044,0.065,0.088,0.096,0.127l0,0c0.03,0.039,0.065,0.091,0.096,0.13c0.004,0.009,0.013,0.022,0.022,0.03
			c0.026,0.035,0.048,0.065,0.074,0.101c0.009,0.009,0.018,0.021,0.026,0.03c0.026,0.035,0.057,0.078,0.083,0.113
			c0.004,0.009,0.009,0.013,0.013,0.018c0.035,0.048,0.061,0.083,0.096,0.131c0.004,0.004,0.013,0.013,0.018,0.021
			c0.026,0.035,0.057,0.074,0.083,0.108c0.004,0.009,0.013,0.018,0.018,0.022c0.065,0.087,0.13,0.174,0.196,0.261
			c0.004,0.009,0.013,0.018,0.018,0.026c0.026,0.034,0.056,0.074,0.083,0.108c0.004,0.009,0.013,0.014,0.017,0.022
			c0.07,0.091,0.126,0.169,0.196,0.261c0.009,0.009,0.013,0.013,0.017,0.021c0.026,0.035,0.061,0.078,0.087,0.113
			c0.004,0.009,0.008,0.013,0.013,0.018c0.07,0.096,0.131,0.174,0.2,0.266c0.004,0.004,0.009,0.013,0.013,0.018
			c0.031,0.043,0.061,0.082,0.091,0.121c0.004,0.005,0.004,0.009,0.009,0.009c0.07,0.092,0.135,0.179,0.205,0.271
			c0.004,0.004,0.004,0.009,0.009,0.009c0.104,0.139,0.2,0.265,0.309,0.404c0.004,0.004,0.004,0.009,0.009,0.013
			c0.104,0.14,0.205,0.271,0.313,0.409l0,0c1.097,1.424,2.215,2.838,3.342,4.239l38.137-30.811
			C196.666,450.649,187.647,435.455,180.958,419.216L180.958,419.216z"/>
		<path fill="#F9ED32" d="M212.287,469.77l-36.931,32.248c11.234,12.866,23.86,24.47,37.653,34.594l0.004,0.004
			c0.096,0.07,0.183,0.131,0.274,0.2c0.004,0.005,0.009,0.005,0.013,0.009c0.044,0.035,0.079,0.062,0.126,0.092
			c0.004,0.004,0.009,0.009,0.009,0.009c0.096,0.069,0.183,0.13,0.274,0.2c0.004,0.004,0.009,0.004,0.013,0.009
			c0.043,0.034,0.079,0.057,0.126,0.091c0.004,0.005,0.009,0.005,0.013,0.009c0.087,0.065,0.179,0.131,0.266,0.196
			c0.009,0.004,0.018,0.009,0.026,0.018c0.035,0.025,0.074,0.057,0.113,0.078c0.004,0.009,0.013,0.013,0.022,0.018
			c0.087,0.064,0.174,0.126,0.261,0.191c0.009,0.004,0.017,0.013,0.03,0.021c0.035,0.021,0.065,0.048,0.1,0.074
			c0.013,0.004,0.026,0.013,0.035,0.021c0.083,0.061,0.174,0.126,0.257,0.183c0.013,0.009,0.021,0.018,0.035,0.026
			c0.035,0.026,0.061,0.044,0.096,0.069c0.013,0.009,0.026,0.022,0.039,0.031c0.035,0.025,0.074,0.048,0.109,0.073
			c0.009,0.009,0.018,0.014,0.026,0.022c0.035,0.025,0.083,0.057,0.118,0.082c0.013,0.009,0.03,0.022,0.039,0.03
			c0.035,0.022,0.057,0.04,0.092,0.065c0.017,0.009,0.03,0.018,0.043,0.031c0.035,0.025,0.065,0.048,0.104,0.069
			c0.013,0.013,0.026,0.021,0.039,0.03c0.035,0.026,0.065,0.048,0.1,0.074c0.021,0.013,0.043,0.026,0.061,0.043
			c0.026,0.018,0.043,0.031,0.069,0.048c0.018,0.014,0.04,0.026,0.061,0.039c0.022,0.018,0.048,0.035,0.07,0.053
			c0.03,0.021,0.061,0.044,0.087,0.065c0.03,0.018,0.048,0.03,0.078,0.052c0.022,0.018,0.043,0.031,0.061,0.044
			c0.026,0.018,0.043,0.03,0.065,0.048c0.021,0.013,0.043,0.03,0.065,0.043c0.021,0.014,0.039,0.031,0.057,0.04
			c0.043,0.03,0.083,0.061,0.122,0.087c0.018,0.013,0.035,0.025,0.057,0.039c0.022,0.018,0.043,0.035,0.07,0.052
			c0.017,0.009,0.035,0.022,0.052,0.035c0.026,0.018,0.053,0.035,0.074,0.052c0.013,0.009,0.03,0.022,0.039,0.026
			c0.052,0.039,0.1,0.074,0.152,0.109c0.018,0.013,0.022,0.013,0.039,0.025c0.022,0.018,0.048,0.035,0.074,0.053
			c0.009,0.009,0.039,0.026,0.048,0.035c0.026,0.017,0.052,0.034,0.079,0.052c0.013,0.009,0.026,0.018,0.035,0.026
			c0.096,0.065,0.187,0.13,0.278,0.195c0.013,0.009,0.018,0.009,0.026,0.018c0.035,0.021,0.065,0.044,0.096,0.065l0,0
			c0.104,0.074,0.209,0.144,0.313,0.218c0.004,0.004,0.013,0.009,0.017,0.013c0.14,0.096,0.274,0.191,0.414,0.287
			c0.009,0.005,0.009,0.005,0.013,0.009c0.139,0.096,0.283,0.191,0.422,0.287c0.004,0.005,0.004,0.005,0.009,0.009
			c2.302,1.58,4.626,3.117,6.985,4.618l26.289-41.384C237.322,494.597,223.895,483.066,212.287,469.77L212.287,469.77z"/>
		<path fill="#262262" d="M258.193,507.693l-24.674,42.362c19.042,11.095,39.812,19.552,61.801,24.87l11.525-47.65
			C289.779,523.145,273.409,516.56,258.193,507.693L258.193,507.693z"/>
		<path fill="#1C75BC" d="M313.7,528.79l-9.676,48.064c0.043,0.009,0.087,0.018,0.131,0.026c0.009,0,0.017,0.004,0.026,0.004
			c0.052,0.009,0.091,0.018,0.144,0.03c0.013,0,0.022,0.005,0.035,0.005c0.043,0.009,0.091,0.018,0.135,0.025
			c0.013,0.005,0.026,0.009,0.043,0.009c0.043,0.009,0.074,0.018,0.118,0.026c0.021,0.005,0.039,0.005,0.057,0.009
			c0.039,0.009,0.083,0.018,0.117,0.026c0.022,0,0.04,0.004,0.061,0.009c0.035,0.009,0.065,0.013,0.1,0.021
			c0.026,0.005,0.052,0.009,0.079,0.013c0.026,0.009,0.057,0.014,0.087,0.018c0.03,0.009,0.057,0.014,0.087,0.018
			c0.022,0.004,0.035,0.009,0.057,0.013c0.448,0.088,0.892,0.175,1.341,0.257h0.004c0.052,0.009,0.104,0.022,0.157,0.031
			c0.009,0,0.009,0,0.018,0.004c0.057,0.009,0.113,0.021,0.166,0.03h0.009c0.056,0.014,0.113,0.022,0.165,0.03
			c0.009,0.005,0.004,0.005,0.009,0.005c0.057,0.009,0.113,0.021,0.174,0.03l0,0c0.061,0.013,0.113,0.021,0.174,0.035
			c0.004,0-0.004-0.005,0.004,0c0.057,0.009,0.113,0.021,0.17,0.03h0.004c0.056,0.013,0.113,0.021,0.169,0.03l0.004,0.005
			c0.057,0.009,0.113,0.017,0.174,0.03l0,0c0.057,0.009,0.113,0.021,0.169,0.03h0.009c0.057,0.013,0.113,0.021,0.17,0.035h0.004
			c0.057,0.009,0.113,0.017,0.174,0.03l0,0c0.235,0.043,0.466,0.083,0.701,0.126h0.004c0.057,0.009,0.113,0.018,0.17,0.03h0.004
			c0.057,0.009,0.113,0.022,0.17,0.031h0.008c0.113,0.021,0.231,0.039,0.344,0.061h0.004c7.377,1.284,14.876,2.22,22.48,2.79l0,0
			c0.061,0.004,0.122,0.009,0.183,0.013l0,0c0.118,0.009,0.24,0.018,0.361,0.026l0,0c0.061,0.004,0.118,0.009,0.179,0.013h0.004
			c0.056,0.005,0.117,0.009,0.174,0.014h0.009c0.057,0.004,0.113,0.009,0.174,0.013c0.004,0,0,0,0.008,0
			c0.057,0.005,0.113,0.009,0.174,0.013c0.004,0-0.004,0,0.004,0c0.057,0.005,0.113,0.009,0.174,0.014c0.004,0,0.004,0,0.013,0
			c0.052,0.004,0.113,0.009,0.17,0.013c0.004,0,0.004,0,0.009,0c0.057,0.005,0.113,0.009,0.169,0.013h0.013
			c0.057,0.005,0.113,0.005,0.17,0.009h0.013c0.052,0.005,0.113,0.009,0.17,0.014h0.013c0.057,0.004,0.109,0.009,0.166,0.013h0.013
			c0.057,0.005,0.113,0.009,0.17,0.009c0.009,0.005,0.004,0,0.009,0.005c0.061,0,0.117,0.004,0.174,0.008c0.009,0,0,0,0.009,0
			c0.057,0.005,0.113,0.009,0.17,0.014c0.009,0,0.009,0,0.017,0c0.057,0.004,0.113,0.009,0.17,0.009l0,0
			c0.061,0.004,0.122,0.009,0.183,0.013h0.004c1.45,0.087,2.903,0.161,4.357,0.222l0.013,0.005c0.057,0,0.109,0.004,0.17,0.004
			c0.004,0,0.004,0,0.013,0c0.048,0.005,0.1,0.005,0.152,0.009c0.009,0,0.026,0,0.031,0c0.052,0.005,0.104,0.005,0.152,0.005
			c0.008,0.004,0.026,0.004,0.03,0.004c0.048,0,0.096,0.005,0.148,0.005c0.013,0,0.022,0,0.039,0
			c0.048,0.004,0.096,0.004,0.144,0.009c0.013,0,0.022,0,0.04,0c0.043,0,0.087,0.004,0.135,0.004c0.022,0,0.03,0,0.052,0.004
			c0.043,0,0.083,0,0.126,0.005c0.022,0,0.035,0,0.057,0c0.044,0.004,0.083,0.004,0.126,0.004c0.022,0,0.035,0.005,0.061,0.005
			c0.039,0,0.083,0,0.126,0.004c0.013,0,0.039,0,0.057,0c0.039,0.005,0.078,0.005,0.122,0.005c0.017,0,0.048,0.004,0.061,0.004
			c0.044,0,0.083,0,0.122,0.005c0.018,0,0.048,0,0.065,0c0.039,0,0.078,0.004,0.113,0.004c0.026,0,0.048,0,0.069,0.005
			c0.039,0,0.079,0,0.118,0c0.021,0.004,0.043,0.004,0.065,0.004c0.04,0,0.079,0,0.118,0.005c0.022,0,0.048,0,0.074,0
			c0.035,0.004,0.069,0.004,0.104,0.004c0.026,0,0.052,0,0.078,0.004c0.035,0,0.074,0,0.109,0c0.021,0,0.052,0.005,0.074,0.005
			c0.035,0,0.074,0,0.108,0.004c0.026,0,0.052,0,0.079,0c0.035,0,0.069,0.005,0.104,0.005c0.021,0,0.057,0,0.083,0
			c0.03,0.004,0.065,0.004,0.1,0.004c0.026,0,0.057,0,0.083,0c0.035,0.005,0.07,0.005,0.104,0.005c0.022,0,0.057,0,0.079,0.004
			c0.035,0,0.07,0,0.104,0c0.03,0,0.052,0.005,0.083,0.005c0.035,0,0.065,0,0.1,0c0.031,0,0.052,0.004,0.087,0.004
			c0.03,0,0.065,0,0.1,0c0.031,0.004,0.053,0.004,0.083,0.004s0.065,0,0.1,0c0.03,0.005,0.057,0.005,0.087,0.005
			c0.031,0,0.065,0,0.096,0c0.031,0,0.057,0.004,0.087,0.004c0.035,0,0.065,0,0.1,0c0.031,0,0.057,0.005,0.087,0.005
			c0.03,0,0.065,0,0.096,0c0.03,0,0.057,0,0.091,0.004c0.03,0,0.061,0,0.091,0c0.031,0,0.061,0,0.096,0
			c0.031,0.005,0.061,0.005,0.092,0.005c0.03,0,0.056,0,0.091,0c0.03,0,0.061,0.004,0.096,0.004c0.021,0,0.065,0,0.087,0
			c0.031,0,0.065,0,0.096,0.005c0.022,0,0.07,0,0.092,0c0.03,0,0.061,0,0.091,0c0.03,0,0.061,0.004,0.091,0.004s0.065,0,0.096,0
			s0.057,0,0.091,0c0.031,0,0.061,0.005,0.096,0.005c0.031,0,0.057,0,0.087,0c0.035,0,0.065,0,0.096,0
			c0.03,0,0.061,0.004,0.091,0.004c0.03,0,0.061,0,0.096,0c0.03,0,0.061,0,0.091,0s0.061,0,0.091,0.005c0.031,0,0.061,0,0.096,0
			c0.03,0,0.061,0,0.091,0c0.03,0,0.061,0,0.091,0s0.061,0.004,0.096,0.004c0.03,0,0.057,0,0.091,0c0.031,0,0.061,0,0.091,0
			c0.031,0,0.065,0,0.096,0c0.031,0,0.061,0,0.087,0.004c0.03,0,0.069,0,0.1,0c0.03,0,0.061,0,0.087,0c0.03,0,0.07,0,0.1,0
			c0.026,0,0.057,0,0.087,0c0.031,0,0.061,0,0.096,0.005c0.031,0,0.061,0,0.092,0c0.03,0,0.056,0,0.091,0c0.03,0,0.061,0,0.091,0
			c0.026,0,0.07,0,0.091,0c0.031,0,0.065,0,0.096,0c0.031,0,0.07,0,0.1,0c0.026,0,0.057,0.004,0.083,0.004c0.039,0,0.069,0,0.109,0
			c0.026,0,0.052,0,0.078,0c0.039,0,0.07,0,0.104,0c0.026,0,0.057,0,0.083,0c0.04,0,0.061,0,0.1,0c0.026,0,0.057,0,0.087,0
			c0.039,0,0.078,0,0.117,0c0.022,0,0.043,0,0.065,0c0.039,0,0.083,0,0.122,0c0.022,0,0.044,0,0.065,0c0.048,0,0.096,0,0.144,0
			c0.013,0,0.026,0,0.04,0c0.065,0,0.126,0,0.187,0l0,0l0,0c0.065,0,0.118,0,0.178,0c0.018,0,0.035,0,0.057,0
			c0.04,0,0.079,0,0.118,0c0.026,0,0.048,0,0.07,0c0.039,0,0.069,0,0.109,0c0.021,0,0.048,0,0.069,0c0.03,0,0.078,0,0.109,0
			c0.022,0,0.048,0,0.07,0c0.039,0,0.069,0,0.108,0c0.022,0,0.048,0,0.07,0c0.039,0,0.091,0,0.13,0c0.014,0,0.03,0,0.044,0
			c0.061,0,0.113,0,0.179,0c0.013,0,0.025,0,0.039-0.004c0.043,0,0.082,0,0.13,0c0.026,0,0.053,0,0.079,0c0.039,0,0.057,0,0.096,0
			c0.025,0,0.057,0,0.082,0c0.031,0,0.065,0,0.096,0c0.026,0,0.053,0,0.079,0c0.03,0,0.069-0.005,0.1-0.005c0.026,0,0.053,0,0.078,0
			c0.03,0,0.07,0,0.101,0c0.026,0,0.048,0,0.074,0c0.048,0,0.096,0,0.144,0c0.025,0,0.048-0.004,0.073-0.004c0.04,0,0.088,0,0.127,0
			c0.025,0,0.057,0,0.082,0c0.031,0,0.057,0,0.088,0c0.03,0,0.061-0.004,0.091-0.004c0.026,0,0.062,0,0.083,0
			c0.034,0,0.065,0,0.096,0c0.021,0,0.057,0,0.078,0c0.03,0,0.065-0.005,0.096-0.005c0.021,0,0.057,0,0.078,0
			c0.035,0,0.065,0,0.096,0c0.026,0,0.048,0,0.07,0c0.121-0.004,0.248-0.004,0.37-0.009c0.021,0,0.043,0,0.069,0
			c0.035,0,0.069,0,0.104,0c0.021-0.004,0.043-0.004,0.065-0.004c0.034,0,0.069,0,0.108,0c0.013,0,0.044,0,0.062,0
			c0.039-0.005,0.073-0.005,0.112-0.005c0.014,0,0.035,0,0.053,0c0.039,0,0.078,0,0.117-0.004c0.009,0,0.035,0,0.044,0
			c0.195-0.005,0.392-0.009,0.588-0.014c0.008,0,0.025,0,0.034,0c0.044,0,0.087,0,0.131,0c0.009,0,0.026-0.004,0.034-0.004
			c0.049,0,0.092,0,0.136,0c0.009,0,0.021,0,0.03,0c0.048-0.005,0.096-0.005,0.144-0.005c0.009,0,0,0,0.004,0
			c0.271-0.008,0.536-0.013,0.802-0.021h0.004c4.731-0.131,9.423-0.4,14.08-0.81l-4.291-48.839
			c-5.367,0.47-10.838,0.709-16.266,0.709C337.77,532.385,325.556,531.175,313.7,528.79L313.7,528.79z"/>
		<path fill="#00A79D" d="M423.788,516.89c-16.065,7.104-33.066,11.826-50.532,14.037l6.163,48.635
			c6.167-0.779,12.261-1.802,18.271-3.06c0.009,0,0,0,0.009,0c0.165-0.039,0.335-0.074,0.505-0.109l0.013-0.004
			c0.17-0.035,0.335-0.069,0.505-0.104c0.005-0.004,0,0,0.009-0.004c0.126-0.026,0.248-0.053,0.374-0.079l0.009-0.004
			c0.039-0.009,0.083-0.018,0.122-0.026h0.013c0.122-0.026,0.244-0.052,0.37-0.083h0.014c0.122-0.03,0.248-0.056,0.37-0.082
			c0.008,0,0,0,0.008,0c0.04-0.009,0.079-0.018,0.118-0.026c0.004-0.004,0.018-0.004,0.026-0.009
			c0.117-0.026,0.23-0.048,0.348-0.074c0.013-0.004,0.018-0.004,0.03-0.008c0.039-0.009,0.07-0.018,0.109-0.026
			c0.013,0,0.017,0,0.03-0.005c0.113-0.025,0.227-0.052,0.344-0.078c0.013-0.004,0.021-0.004,0.035-0.009
			c0.034-0.004,0.069-0.013,0.108-0.021c0.005-0.005,0.021-0.005,0.026-0.009c0.069-0.013,0.139-0.03,0.204-0.044
			c0.009-0.004,0.026-0.009,0.035-0.009c0.035-0.008,0.065-0.013,0.1-0.021c0.014-0.004,0.035-0.009,0.048-0.013
			c0.035-0.009,0.07-0.014,0.101-0.022l0.018-0.004c0.069-0.013,0.135-0.03,0.204-0.043c0.014-0.005,0.035-0.009,0.053-0.014
			c0.03-0.009,0.061-0.018,0.091-0.021c0.026-0.005,0.031-0.009,0.057-0.014c0.104-0.025,0.214-0.048,0.318-0.073
			c0.021-0.005,0.03-0.005,0.052-0.014c0.03-0.004,0.062-0.013,0.092-0.021c0.013,0,0.043-0.009,0.057-0.013
			c0.052-0.009,0.108-0.022,0.161-0.035c0.021-0.004,0.039-0.009,0.061-0.018c0.03-0.004,0.057-0.013,0.087-0.018
			c0.021-0.004,0.044-0.009,0.065-0.018c0.026-0.004,0.057-0.013,0.087-0.017c0.026-0.009,0.039-0.014,0.069-0.018
			c0.044-0.013,0.092-0.021,0.136-0.03c0.021-0.009,0.057-0.014,0.078-0.022c0.026-0.004,0.052-0.009,0.078-0.017
			c0.021-0.005,0.053-0.014,0.074-0.018c0.026-0.005,0.052-0.014,0.078-0.018c0.044-0.009,0.087-0.021,0.131-0.03
			c0.025-0.009,0.052-0.014,0.078-0.022c0.021-0.004,0.057-0.013,0.078-0.017c0.026-0.005,0.053-0.014,0.078-0.018
			c0.026-0.009,0.057-0.014,0.088-0.022c0.021-0.004,0.048-0.013,0.073-0.017c0.044-0.009,0.083-0.022,0.127-0.031
			c0.021-0.004,0.043-0.008,0.064-0.017c0.031-0.005,0.065-0.014,0.092-0.022c0.026-0.004,0.048-0.009,0.069-0.013
			c0.035-0.009,0.07-0.018,0.109-0.026c0.03-0.009,0.057-0.018,0.087-0.021c0.035-0.009,0.057-0.013,0.096-0.021
			c0.021-0.009,0.048-0.014,0.069-0.022c0.031-0.004,0.057-0.013,0.087-0.017c0.022-0.009,0.048-0.014,0.07-0.018
			c0.043-0.014,0.091-0.022,0.135-0.035c0.026-0.004,0.048-0.009,0.069-0.018c0.03-0.004,0.057-0.013,0.087-0.021
			c0.022-0.005,0.048-0.009,0.065-0.013c0.039-0.009,0.065-0.018,0.104-0.026c0.018-0.005,0.035-0.009,0.053-0.014
			c0.043-0.008,0.1-0.025,0.144-0.034c0.018-0.005,0.039-0.009,0.057-0.014c0.03-0.008,0.073-0.017,0.1-0.025
			c0.021-0.005,0.039-0.009,0.062-0.014c0.043-0.013,0.082-0.021,0.126-0.034c0.018-0.005,0.026-0.005,0.043-0.009
			c0.044-0.014,0.088-0.021,0.131-0.035c0.021-0.004,0.039-0.009,0.057-0.013c0.044-0.009,0.065-0.018,0.109-0.026
			c0.017-0.004,0.03-0.009,0.047-0.013c0.049-0.014,0.101-0.022,0.148-0.035c0.018-0.005,0.026-0.009,0.044-0.013
			c0.043-0.009,0.073-0.018,0.117-0.031c0.013,0,0.035-0.008,0.052-0.013c0.04-0.009,0.074-0.018,0.118-0.026
			c0.009-0.004,0.026-0.009,0.034-0.013c0.053-0.009,0.104-0.021,0.152-0.035c0.014-0.004,0.031-0.009,0.044-0.013
			c0.044-0.009,0.074-0.018,0.117-0.03c0.014,0,0.035-0.009,0.048-0.014c0.053-0.009,0.101-0.021,0.148-0.034
			c0.004,0,0.004,0,0.004,0c0.053-0.014,0.109-0.031,0.157-0.044c0.013,0,0.03-0.004,0.043-0.009
			c0.044-0.013,0.074-0.021,0.118-0.03c0.018-0.005,0.03-0.009,0.048-0.013c0.048-0.014,0.1-0.026,0.152-0.039
			c0.009,0,0.013-0.005,0.026-0.005c0.043-0.013,0.087-0.026,0.13-0.035c0.014-0.004,0.026-0.009,0.044-0.013
			c0.043-0.009,0.082-0.021,0.126-0.03c0.013-0.005,0.021-0.005,0.03-0.009c0.062-0.018,0.104-0.026,0.166-0.044
			c0,0,0.008,0,0.013-0.004c0.048-0.013,0.091-0.021,0.144-0.035c0.009-0.004,0.021-0.009,0.035-0.009
			c0.108-0.03,0.213-0.057,0.322-0.087c0.008,0,0.013-0.004,0.021-0.004c0.043-0.014,0.1-0.026,0.144-0.039
			c0.009,0,0.018-0.005,0.026-0.005c0.113-0.03,0.209-0.057,0.326-0.087c0.004,0,0.018-0.004,0.021-0.004
			c0.053-0.014,0.104-0.031,0.152-0.044c0.005,0,0.009,0,0.014,0c0.104-0.03,0.222-0.061,0.33-0.092
			c0.005,0,0.014-0.004,0.021-0.004c0.113-0.03,0.218-0.057,0.336-0.092l0,0c0.061-0.013,0.108-0.025,0.165-0.043
			c0.005,0,0.009,0,0.009-0.005c0.117-0.03,0.227-0.057,0.34-0.091c0.004,0,0.004,0,0.009,0c0.169-0.048,0.339-0.092,0.513-0.14l0,0
			c10.581-2.898,20.857-6.528,30.777-10.833l0,0c0.104-0.044,0.209-0.092,0.317-0.135c0.004-0.005,0.004-0.005,0.009-0.009
			c0.161-0.07,0.313-0.136,0.475-0.205c0.004,0,0.009-0.004,0.009-0.004c0.165-0.07,0.313-0.136,0.474-0.209
			c0.005,0,0.005,0,0.009-0.005c0.057-0.021,0.101-0.043,0.157-0.065L423.788,516.89L423.788,516.89z"/>
		<path fill="#9E1F63" d="M473.55,484.29c-13.005,11.943-27.607,21.915-43.398,29.641l21.536,44.043
			c17.223-8.423,33.235-18.912,47.733-31.151c0.005-0.004,0.009-0.009,0.009-0.009c0.044-0.039,0.078-0.065,0.122-0.104
			c0.005,0,0.009-0.004,0.009-0.004c0.092-0.078,0.165-0.144,0.257-0.218c0.004-0.005,0.009-0.009,0.018-0.018
			c0.039-0.03,0.074-0.061,0.113-0.096c0.004-0.004,0.009-0.004,0.013-0.009c0.083-0.069,0.165-0.144,0.248-0.213
			c0.009-0.009,0.018-0.014,0.026-0.021c0.034-0.026,0.069-0.062,0.104-0.088c0.009-0.009,0.013-0.013,0.021-0.017
			c0.083-0.074,0.157-0.14,0.239-0.209c0.014-0.009,0.026-0.022,0.039-0.031c0.03-0.03,0.053-0.048,0.087-0.073
			c0.014-0.014,0.022-0.022,0.035-0.031c0.039-0.034,0.078-0.064,0.117-0.1c0.009-0.009,0.014-0.013,0.026-0.021
			c0.03-0.031,0.057-0.053,0.087-0.079c0.018-0.013,0.031-0.025,0.048-0.039c0.022-0.017,0.053-0.043,0.074-0.065
			c0.013-0.013,0.03-0.025,0.044-0.039c0.039-0.03,0.074-0.061,0.113-0.096c0.013-0.009,0.021-0.018,0.034-0.03
			c0.026-0.021,0.053-0.044,0.079-0.065c0.017-0.018,0.039-0.034,0.056-0.048c0.022-0.021,0.04-0.034,0.062-0.052
			c0.018-0.018,0.039-0.035,0.057-0.053c0.021-0.018,0.034-0.03,0.057-0.048c0.039-0.034,0.073-0.065,0.113-0.096
			c0.013-0.013,0.03-0.026,0.043-0.043c0.026-0.018,0.044-0.035,0.069-0.057c0.014-0.014,0.031-0.026,0.048-0.039
			c0.022-0.022,0.044-0.04,0.065-0.062c0.014-0.009,0.022-0.018,0.031-0.026c0.048-0.043,0.096-0.082,0.144-0.121
			c0.008-0.014,0.021-0.022,0.034-0.031c0.022-0.021,0.053-0.048,0.079-0.069c0.004-0.004,0.021-0.021,0.025-0.026
			c0.092-0.078,0.183-0.156,0.271-0.234l0.013-0.009c0.026-0.026,0.057-0.053,0.087-0.078c0.005-0.005,0.009-0.005,0.013-0.014
			c0.127-0.108,0.257-0.222,0.384-0.335l0,0c1.24-1.088,2.463-2.189,3.678-3.304L473.55,484.29L473.55,484.29z"/>
		<path fill="#EE2A7B" d="M510.307,437.457c-8.47,15.421-19.12,29.545-31.664,41.976l34.52,34.815
			c4.622-4.583,9.053-9.357,13.279-14.315c0.005-0.009,0-0.004,0.005-0.009c0.112-0.131,0.222-0.257,0.33-0.387
			c0.005-0.005,0.005-0.005,0.009-0.009c0.031-0.035,0.057-0.065,0.083-0.097v-0.004c0.083-0.096,0.161-0.191,0.244-0.283
			c0.004-0.009,0.009-0.017,0.017-0.021c0.022-0.026,0.048-0.057,0.07-0.087c0.004-0.005,0.013-0.013,0.018-0.018
			c0.078-0.091,0.152-0.183,0.226-0.27c0.005-0.005,0.018-0.022,0.022-0.026c0.025-0.03,0.048-0.057,0.073-0.083
			c0.005-0.009,0.009-0.013,0.014-0.021c0.073-0.087,0.147-0.174,0.222-0.266c0.009-0.009,0.021-0.021,0.03-0.034
			c0.022-0.026,0.044-0.053,0.065-0.079c0.009-0.009,0.013-0.017,0.021-0.025c0.053-0.062,0.101-0.118,0.152-0.179
			c0.005-0.005-0.004,0.004,0,0c0.022-0.026,0.044-0.053,0.062-0.078c0.018-0.018,0.021-0.022,0.034-0.039
			c0.022-0.026,0.044-0.049,0.062-0.074c0.009-0.014,0.026-0.03,0.034-0.039c0.035-0.044,0.074-0.088,0.109-0.136
			c0.013-0.013,0.021-0.021,0.035-0.039c0.017-0.021,0.039-0.043,0.057-0.069c0.013-0.018,0.03-0.035,0.043-0.048
			c0.018-0.021,0.035-0.044,0.053-0.065c0.013-0.018,0.034-0.043,0.048-0.061c0.021-0.026,0.048-0.057,0.069-0.083
			c0.026-0.03,0.043-0.052,0.065-0.078c0.018-0.021,0.034-0.044,0.052-0.062c0.014-0.017,0.03-0.039,0.044-0.057
			c0.018-0.021,0.034-0.043,0.052-0.064c0.018-0.018,0.035-0.039,0.048-0.057c0.022-0.026,0.048-0.057,0.074-0.087
			c0.021-0.026,0.039-0.048,0.061-0.079c0.018-0.018,0.035-0.034,0.048-0.057c0.022-0.021,0.035-0.039,0.053-0.061
			s0.03-0.039,0.048-0.057c0.021-0.03,0.035-0.048,0.057-0.074c0.013-0.013,0.026-0.03,0.039-0.043
			c0.03-0.039,0.061-0.074,0.092-0.113c0.013-0.018,0.025-0.03,0.039-0.048c0.018-0.021,0.043-0.053,0.061-0.074
			c0.013-0.018,0.026-0.03,0.039-0.048c0.026-0.035,0.048-0.057,0.074-0.092c0.009-0.008,0.018-0.017,0.021-0.025
			c0.035-0.039,0.065-0.079,0.096-0.118c0.014-0.013,0.026-0.03,0.035-0.043c0.026-0.03,0.044-0.053,0.065-0.083
			c0.013-0.013,0.026-0.026,0.035-0.039c0.03-0.035,0.061-0.074,0.091-0.108c0-0.005,0.005-0.009,0.009-0.014
			c0.03-0.039,0.065-0.083,0.101-0.122c0.004-0.008,0.017-0.021,0.025-0.03c0.026-0.034,0.044-0.057,0.07-0.091
			c0.013-0.014,0.021-0.026,0.034-0.039c0.03-0.04,0.062-0.074,0.092-0.113c0-0.005,0-0.005,0.004-0.009
			c0.031-0.039,0.07-0.083,0.101-0.122c0.009-0.013,0.018-0.021,0.026-0.035c0.025-0.03,0.048-0.057,0.073-0.091
			c0.009-0.014,0.018-0.022,0.03-0.035c0.031-0.039,0.057-0.074,0.092-0.113c0-0.004,0.005-0.004,0.005-0.009
			c0.039-0.043,0.064-0.082,0.104-0.126c0.004-0.009,0.013-0.018,0.017-0.026c0.026-0.034,0.057-0.065,0.083-0.1
			c0.009-0.009,0.018-0.022,0.021-0.031c0.07-0.082,0.135-0.165,0.205-0.252c0.004-0.009,0.009-0.013,0.018-0.018
			c0.025-0.035,0.061-0.078,0.087-0.113c0.004-0.004,0.009-0.013,0.013-0.018c0.074-0.091,0.14-0.174,0.214-0.265
			c0,0,0-0.005,0.004-0.005c0.03-0.039,0.065-0.083,0.096-0.122c0.005-0.004,0.009-0.013,0.013-0.017
			c0.074-0.092,0.14-0.175,0.209-0.266c0.005,0,0.005,0,0.005,0c0.034-0.048,0.065-0.088,0.104-0.131
			c0-0.005,0.004-0.009,0.004-0.009c0.109-0.135,0.209-0.266,0.318-0.405c0.004,0,0.004,0,0.004-0.004
			c0.074-0.092,0.144-0.179,0.213-0.27l0,0c7.809-9.938,14.825-20.531,20.949-31.682L510.307,437.457L510.307,437.457z"/>
		<path fill="#3C2415" d="M529.989,381.44c-3.029,17.314-8.558,34.066-16.423,49.797l43.852,21.928
			c0.31-0.613,0.609-1.228,0.914-1.846l0.005-0.009c0.074-0.152,0.147-0.305,0.222-0.452c0-0.009,0-0.005,0.005-0.013
			c0.052-0.109,0.108-0.223,0.16-0.336l0.005-0.009c0.018-0.034,0.035-0.073,0.052-0.108c0.005-0.004,0.005-0.013,0.009-0.018
			c0.053-0.108,0.104-0.218,0.157-0.326c0.004-0.009,0.004-0.009,0.009-0.014c0.018-0.034,0.034-0.073,0.052-0.108
			c0.005-0.009,0-0.004,0.005-0.013c0.034-0.07,0.069-0.14,0.104-0.214l0.004-0.013c0.018-0.03,0.03-0.065,0.048-0.096
			c0.004-0.014,0.009-0.021,0.013-0.035c0.018-0.03,0.031-0.065,0.048-0.096c0.005-0.004,0.009-0.021,0.014-0.026
			c0.026-0.061,0.057-0.117,0.082-0.178c0.009-0.014,0.014-0.026,0.022-0.039c0.013-0.031,0.03-0.062,0.043-0.092
			c0.005-0.013,0.014-0.026,0.018-0.039c0.048-0.101,0.096-0.2,0.144-0.301c0.005-0.013,0.014-0.025,0.018-0.039
			c0.014-0.03,0.03-0.061,0.044-0.091c0.009-0.018,0.013-0.026,0.021-0.044c0.026-0.061,0.057-0.122,0.083-0.179
			c0.004-0.009,0.009-0.018,0.013-0.025c0.013-0.026,0.026-0.057,0.039-0.083c0.009-0.021,0.018-0.035,0.026-0.053
			c0.013-0.03,0.026-0.056,0.039-0.087c0.004-0.013,0.018-0.034,0.021-0.052c0.026-0.048,0.048-0.096,0.07-0.144
			c0.008-0.014,0.017-0.039,0.025-0.053c0.014-0.025,0.026-0.057,0.039-0.082c0.009-0.022,0.018-0.04,0.026-0.062
			c0.014-0.021,0.026-0.052,0.035-0.074c0.013-0.025,0.021-0.048,0.034-0.073c0.018-0.039,0.035-0.079,0.057-0.118
			c0.009-0.021,0.022-0.048,0.031-0.069c0.013-0.021,0.021-0.048,0.034-0.069c0.014-0.031,0.022-0.048,0.03-0.074
			c0.014-0.021,0.022-0.044,0.035-0.069c0.018-0.039,0.039-0.083,0.057-0.127c0.009-0.018,0.018-0.034,0.026-0.057
			c0.013-0.025,0.026-0.052,0.039-0.078c0.009-0.021,0.021-0.048,0.03-0.069c0.014-0.026,0.026-0.057,0.039-0.083
			c0.009-0.021,0.018-0.035,0.026-0.057c0.018-0.039,0.044-0.091,0.061-0.131c0.009-0.017,0.014-0.034,0.022-0.052
			c0.013-0.026,0.03-0.065,0.043-0.092c0.009-0.017,0.018-0.034,0.026-0.056c0.013-0.031,0.03-0.065,0.048-0.101
			c0.009-0.018,0.013-0.035,0.021-0.052c0.018-0.04,0.039-0.088,0.057-0.127c0.009-0.018,0.018-0.03,0.021-0.048
			c0.014-0.026,0.035-0.069,0.049-0.096c0.004-0.018,0.013-0.034,0.021-0.052c0.021-0.044,0.043-0.092,0.065-0.14
			c0-0.004,0.004-0.009,0.004-0.018c0.021-0.039,0.044-0.087,0.062-0.126c0.004-0.013,0.013-0.026,0.017-0.044
			c0.018-0.039,0.035-0.069,0.053-0.108c0.004-0.013,0.009-0.026,0.018-0.035c0.017-0.048,0.039-0.096,0.061-0.144
			c0.005-0.009,0.013-0.021,0.018-0.034c0.018-0.039,0.03-0.07,0.052-0.113c0.005-0.014,0.014-0.026,0.018-0.044
			c0.018-0.039,0.035-0.069,0.053-0.108c0.004-0.014,0.009-0.022,0.013-0.035c0.026-0.057,0.044-0.092,0.065-0.144
			c0.004-0.009,0.009-0.021,0.018-0.03c0.018-0.044,0.03-0.078,0.052-0.118c0.005-0.013,0.009-0.025,0.018-0.039
			c0.018-0.048,0.039-0.096,0.061-0.144l0,0c0.022-0.048,0.048-0.1,0.07-0.147c0.004-0.009,0.009-0.022,0.013-0.035
			c0.018-0.039,0.039-0.083,0.057-0.122c0.004-0.009,0.009-0.018,0.009-0.025c0.048-0.109,0.092-0.196,0.14-0.305
			c0-0.005,0.004-0.014,0.008-0.018c0.018-0.044,0.04-0.096,0.062-0.14c0-0.004,0.004-0.013,0.009-0.018
			c0.043-0.1,0.087-0.204,0.135-0.305c0-0.009,0.004-0.018,0.009-0.021c0.044-0.101,0.091-0.209,0.135-0.309
			c0.005-0.005,0.005-0.005,0.005-0.009c0.021-0.053,0.043-0.096,0.064-0.148c0.005-0.004,0.005-0.009,0.005-0.013
			c0.048-0.109,0.091-0.205,0.14-0.313c0-0.005,0.004-0.009,0.004-0.009c0.021-0.057,0.039-0.092,0.065-0.148
			c0-0.004,0.004-0.009,0.004-0.013c0.048-0.108,0.092-0.209,0.14-0.317v-0.005c0.074-0.161,0.139-0.317,0.209-0.479
			c0-0.004,0-0.004,0.004-0.004c0.07-0.161,0.135-0.318,0.205-0.483c0.004,0,0.004,0,0.004-0.005
			c6.978-16.213,12.152-33.388,15.282-51.264L529.989,381.44L529.989,381.44z"/>
		<path fill="#A97C50" d="M579.106,314.455l-48.465,7.384c1.389,9.129,2.094,18.487,2.094,27.81c0,8.322-0.562,16.679-1.667,24.849
			l48.582,6.59c1.089-8.053,1.768-16.23,2.012-24.526l0,0c0.004-0.122,0.009-0.244,0.009-0.366c0-0.004,0-0.004,0-0.008
			c0.004-0.122,0.008-0.24,0.013-0.361c0-0.005,0-0.009,0-0.014c0.004-0.126,0.004-0.234,0.009-0.356c0-0.009,0-0.014,0-0.022
			c0.004-0.121,0.004-0.226,0.009-0.352c0-0.005,0-0.014,0-0.018c0.004-0.127,0.004-0.231,0.009-0.353c0-0.009,0-0.014,0-0.022
			c0.004-0.126,0.004-0.226,0.009-0.353c0-0.009,0-0.013,0-0.021c0-0.108,0.004-0.235,0.004-0.349c0-0.008,0-0.017,0-0.03
			c0.004-0.108,0.004-0.234,0.009-0.344c0-0.009,0-0.018,0-0.026c0-0.108,0.004-0.234,0.004-0.344c0-0.009,0-0.021,0-0.034
			c0.005-0.109,0.005-0.231,0.005-0.34c0-0.009,0-0.021,0-0.035c0.004-0.108,0.004-0.226,0.004-0.335c0-0.013,0-0.026,0-0.039
			c0.005-0.057,0.005-0.113,0.005-0.165v-0.005c0-0.052,0-0.117,0-0.17c0-0.008,0-0.021,0-0.03c0.004-0.108,0.004-0.23,0.004-0.344
			c0-0.009,0-0.021,0-0.03c0-0.108,0.005-0.227,0.005-0.335c0-0.018,0-0.03,0-0.048c0-0.053,0-0.109,0-0.161c0-0.005,0,0,0-0.005
			c0-0.052,0-0.113,0-0.165c0-0.013,0-0.026,0-0.039c0.004-0.109,0.004-0.227,0.004-0.335c0-0.013,0-0.026,0-0.043
			c0-0.052,0-0.1,0-0.157c0-0.004,0-0.008,0-0.013c0-0.057,0-0.104,0-0.161c0-0.013,0-0.026,0-0.039c0-0.057,0-0.109,0-0.161
			c0-0.004,0-0.009,0-0.013c0-0.057,0-0.109,0-0.161c0-0.013,0-0.026,0-0.043c0-0.052,0-0.109,0-0.166l0,0c0-0.052,0-0.113,0-0.169
			c0-0.013,0-0.031,0-0.048c0-0.048,0-0.079,0-0.126c0-0.018,0-0.035,0-0.052c0-0.109,0-0.222,0-0.331c0-0.018,0-0.039,0-0.057
			c0-0.048,0-0.074,0-0.118c0-0.021,0-0.035,0-0.057c0-0.109,0-0.226-0.004-0.335c0-0.018,0-0.031,0-0.048c0-0.043,0-0.079,0-0.126
			c0-0.017,0-0.035,0-0.052c0-0.052,0-0.108,0-0.165c0-0.004,0-0.009,0-0.013c0-0.052,0-0.1,0-0.157c0-0.013,0-0.03,0-0.048
			c-0.005-0.048-0.005-0.083-0.005-0.13c0-0.013,0-0.026,0-0.044c0-0.108,0-0.235-0.004-0.344c0-0.013,0-0.021,0-0.035
			c0-0.048,0-0.096,0-0.139c0-0.013,0-0.026,0-0.039c0-0.057,0-0.118-0.005-0.174v-0.004c0-0.057,0-0.109,0-0.166
			c0-0.013,0-0.03,0-0.043c0-0.048,0-0.087-0.004-0.135c0-0.013,0-0.026,0-0.039c0-0.109,0-0.235-0.005-0.344
			c0-0.013,0-0.026,0-0.039c0-0.048,0-0.096,0-0.139c0-0.013-0.004-0.026-0.004-0.035c0-0.065,0-0.113,0-0.179l0,0
			c0-0.057-0.005-0.113-0.005-0.169c0-0.013,0-0.026,0-0.035c0-0.048,0-0.104-0.004-0.152c0-0.004,0-0.013,0-0.021
			c0-0.118-0.004-0.237-0.004-0.353c0-0.011,0-0.02,0-0.028c-0.005-0.048-0.005-0.113-0.005-0.159c0-0.006,0-0.011,0-0.017
			c-0.004-0.118-0.004-0.237-0.009-0.355c0-0.011,0-0.02,0-0.03c0-0.055-0.004-0.109-0.004-0.163c0-0.002,0-0.007,0-0.009
			c-0.005-0.118-0.005-0.242-0.009-0.359c0-0.009,0-0.017,0-0.026c0-0.055-0.005-0.111-0.005-0.166c0-0.002,0-0.006,0-0.009
			c-0.004-0.124-0.009-0.237-0.009-0.361c0-0.006,0-0.013,0-0.02c-0.008-0.185-0.013-0.357-0.017-0.544c0-0.002,0-0.006,0-0.009
			c-0.005-0.187-0.009-0.361-0.018-0.548c0-0.004,0-0.006,0-0.011c-0.005-0.188-0.014-0.366-0.018-0.551c0-0.002,0-0.002,0-0.002
			c-0.188-5.517-0.57-10.984-1.136-16.396c0,0,0,0,0-0.002c-0.018-0.183-0.039-0.359-0.057-0.542c0-0.002,0-0.007,0-0.009
			c-0.022-0.181-0.039-0.348-0.062-0.531c0-0.006,0-0.015,0-0.021c-0.013-0.122-0.025-0.227-0.039-0.348c0-0.007,0-0.013,0-0.02
			c-0.009-0.043-0.013-0.108-0.018-0.154c-0.004-0.009-0.004-0.018-0.004-0.026c-0.004-0.052-0.013-0.113-0.018-0.166
			c0-0.002,0-0.002-0.004-0.004c-0.005-0.061-0.009-0.113-0.018-0.174c0-0.008,0-0.017-0.005-0.024
			c-0.004-0.045-0.009-0.096-0.013-0.141c-0.004-0.016-0.004-0.031-0.009-0.046c-0.004-0.046-0.009-0.096-0.013-0.142
			c0-0.006-0.005-0.015-0.005-0.024c-0.004-0.052-0.013-0.109-0.018-0.161c-0.004-0.018-0.004-0.033-0.008-0.05
			c-0.005-0.037-0.009-0.078-0.014-0.118c0-0.017-0.004-0.037-0.004-0.057c-0.005-0.037-0.009-0.074-0.014-0.111
			c-0.004-0.02-0.004-0.037-0.009-0.054c-0.004-0.055-0.008-0.096-0.017-0.15c0-0.021-0.005-0.043-0.009-0.067
			c0-0.03-0.005-0.063-0.009-0.094c-0.005-0.026-0.005-0.05-0.009-0.076c-0.005-0.021-0.009-0.063-0.014-0.087
			c-0.004-0.046-0.008-0.091-0.013-0.139c-0.004-0.031-0.009-0.042-0.009-0.072c-0.004-0.033-0.009-0.061-0.013-0.094
			c-0.005-0.021-0.005-0.043-0.009-0.067c-0.005-0.03-0.009-0.061-0.009-0.091c-0.004-0.015-0.009-0.043-0.009-0.059
			c-0.009-0.067-0.018-0.135-0.026-0.202c0-0.015,0-0.013-0.004-0.028c-0.005-0.035-0.005-0.067-0.009-0.102
			c-0.004-0.016-0.004-0.037-0.009-0.052c-0.004-0.037-0.009-0.072-0.013-0.109c0-0.009,0-0.013-0.005-0.022
			c-0.013-0.126-0.03-0.252-0.048-0.378c0-0.007,0-0.013,0-0.02c-0.021-0.178-0.043-0.354-0.069-0.533v-0.002
			C579.634,318.048,579.381,316.249,579.106,314.455L579.106,314.455z"/>
		<path fill="#D7DF23" d="M555.694,242.757L512.209,265.4c8.126,15.602,13.924,32.263,17.24,49.521l48.147-9.249
			c-3.878-20.18-10.372-39.429-19.116-57.381l-0.005-0.009c-0.073-0.152-0.147-0.305-0.222-0.455c-0.004-0.006,0-0.004-0.004-0.011
			c-0.074-0.15-0.148-0.298-0.223-0.448c-0.004-0.013-0.004-0.009-0.009-0.022c-0.056-0.113-0.108-0.222-0.165-0.335v-0.002
			c-0.018-0.035-0.035-0.067-0.052-0.102c-0.005-0.006-0.009-0.022-0.014-0.028c-0.052-0.104-0.104-0.209-0.156-0.313
			c-0.005-0.013-0.005-0.013-0.014-0.026c-0.013-0.031-0.03-0.061-0.048-0.094c-0.004-0.013-0.013-0.026-0.018-0.039
			c-0.052-0.1-0.1-0.198-0.147-0.298c-0.004-0.006-0.018-0.028-0.018-0.035c-0.018-0.03-0.034-0.063-0.048-0.096
			c-0.009-0.013-0.009-0.018-0.018-0.031c-0.03-0.065-0.065-0.132-0.1-0.198l-0.005-0.011c-0.013-0.031-0.03-0.061-0.048-0.094
			c-0.004-0.013-0.013-0.026-0.018-0.039c-0.017-0.031-0.03-0.059-0.048-0.089c-0.004-0.013-0.008-0.024-0.017-0.037
			c-0.031-0.057-0.057-0.113-0.088-0.169c-0.004-0.013-0.008-0.024-0.017-0.037c-0.014-0.031-0.03-0.059-0.044-0.087
			c-0.009-0.013-0.018-0.035-0.021-0.048c-0.018-0.028-0.03-0.056-0.044-0.084c-0.009-0.013-0.018-0.028-0.021-0.042
			c-0.026-0.052-0.057-0.107-0.083-0.157c-0.004-0.013-0.018-0.035-0.021-0.048c-0.013-0.028-0.03-0.059-0.044-0.085
			c-0.009-0.02-0.017-0.033-0.025-0.052c-0.014-0.026-0.026-0.05-0.039-0.078c-0.014-0.026-0.031-0.061-0.044-0.087
			c-0.021-0.037-0.039-0.072-0.057-0.106c-0.009-0.02-0.021-0.039-0.03-0.059c-0.013-0.026-0.026-0.055-0.039-0.081
			c-0.009-0.013-0.018-0.035-0.026-0.048c-0.026-0.055-0.057-0.109-0.083-0.164c-0.009-0.013-0.013-0.021-0.017-0.035
			c-0.014-0.026-0.026-0.052-0.044-0.078c-0.009-0.02-0.018-0.042-0.03-0.061c-0.014-0.024-0.026-0.05-0.039-0.074
			c-0.009-0.02-0.022-0.05-0.035-0.069c-0.018-0.037-0.035-0.074-0.057-0.111c-0.009-0.02-0.026-0.052-0.035-0.072
			c-0.013-0.024-0.025-0.05-0.039-0.074c-0.013-0.026-0.021-0.039-0.034-0.065c-0.014-0.024-0.022-0.048-0.035-0.069
			c-0.018-0.033-0.035-0.065-0.053-0.098c-0.013-0.026-0.025-0.054-0.039-0.081c-0.013-0.026-0.03-0.054-0.043-0.081
			c-0.014-0.022-0.022-0.043-0.035-0.065c-0.013-0.026-0.021-0.048-0.035-0.072c-0.013-0.021-0.025-0.045-0.034-0.065
			C555.734,242.837,555.712,242.793,555.694,242.757L555.694,242.757z"/>
		<linearGradient id="SVGID_2_" gradientUnits="userSpaceOnUse" x1="322.04" y1="268.0195" x2="443.6064" y2="268.0195">
			<stop  offset="0" style="stop-color:#8DC63F"/>
			<stop  offset="0.3051" style="stop-color:#69925D"/>
			<stop  offset="0.621" style="stop-color:#476279"/>
			<stop  offset="0.8629" style="stop-color:#33448A"/>
			<stop  offset="1" style="stop-color:#2B3990"/>
		</linearGradient>
		<path fill="url(#SVGID_2_)" d="M369.329,360.936c-5.432,12.496-19.96,18.22-32.452,12.788l0,0
			c-12.491-5.428-18.215-19.956-12.788-32.448l72.23-166.174c5.432-12.492,19.956-18.218,32.452-12.788l0,0
			c12.492,5.43,18.215,19.961,12.783,32.453L369.329,360.936z"/>
	</g>
</g>
</svg>
